<?xml version="1.0" encoding="utf-8"?>
<!-- Generator: Adobe Illustrator 27.5.0, SVG Export Plug-In . SVG Version: 6.00 Build 0)  -->
<svg version="1.1" xmlns="http://www.w3.org/2000/svg" xmlns:xlink="http://www.w3.org/1999/xlink" x="0px" y="0px"
	 viewBox="0 0 500 500" style="enable-background:new 0 0 500 500;" xml:space="preserve">
<g id="BACKGROUND">
	<rect style="fill:#2D232E;" width="500" height="500"/>
</g>
<g id="OBJECTS">
	<g>
		<path style="fill:#191818;" d="M229.66,166.792c-63.288,9.978-111.439-47.557-59.416-90.292
			c31.043-25.5,43.329,8.634,83.398,9.652c18.607,0.473,41.492-28.777,56.107-2.902C324.365,109.125,320.571,152.459,229.66,166.792
			z"/>
		<path style="fill:#191818;" d="M248.061,450.194C270.187,487,404.241,411.686,365.75,380.448
			C338.219,358.105,219.675,402.978,248.061,450.194z"/>
		<path style="fill:#191818;" d="M74.328,396.557C96.909,442.031,223,441.75,278.749,343.333
			c16.257-28.699,28.159,46.275,82.455,20.783c54.296-25.492,107.171-83.003,86.921-138.538
			c-25.931-71.115-142.298-73.556-235.31-37.704C115,225.579,44.5,336.49,74.328,396.557z"/>
	</g>
	<g>
		<g>
			<path style="fill:#FFFFFF;" d="M376.383,61.605c-3.579,1.143-4.234,2.07-5.043,7.131c-0.809-5.061-1.464-5.987-5.043-7.131
				c3.579-1.143,4.234-2.07,5.043-7.131C372.148,59.535,372.804,60.462,376.383,61.605z"/>
			<path style="fill:#FFFFFF;" d="M378.13,268.654c-3.579,1.143-4.234,2.07-5.043,7.131c-0.809-5.06-1.464-5.987-5.043-7.131
				c3.579-1.143,4.234-2.07,5.043-7.131C373.895,266.584,374.551,267.51,378.13,268.654z"/>
			<path style="fill:#FFFFFF;" d="M125.736,273.602c-3.579,1.143-4.234,2.07-5.043,7.131c-0.809-5.06-1.464-5.987-5.043-7.131
				c3.579-1.143,4.234-2.07,5.043-7.131C121.502,271.531,122.158,272.458,125.736,273.602z"/>
			<path style="fill:#FFFFFF;" d="M362.835,84.086c-9.905,2.485-11.152,4.5-12.691,20.5c-1.538-16-2.786-18.015-12.691-20.5
				c9.905-2.485,11.152-4.5,12.691-20.5C351.683,79.586,352.93,81.601,362.835,84.086z"/>
		</g>
		<g>
			<path style="fill:#F09535;" d="M278.021,97.864c0,1.18-0.983,2.136-2.196,2.136c-1.213,0-2.196-0.956-2.196-2.136
				c0-1.18,0.983-2.136,2.196-2.136C277.038,95.728,278.021,96.684,278.021,97.864z"/>
			<path style="fill:#F09535;" d="M335.734,427.95c0,1.18-0.983,2.136-2.196,2.136c-1.213,0-2.196-0.956-2.196-2.136
				c0-1.18,0.983-2.136,2.196-2.136C334.751,425.814,335.734,426.77,335.734,427.95z"/>
			<path style="fill:#F09535;" d="M79.351,136.575c0,0.567-0.472,1.027-1.055,1.027c-0.583,0-1.055-0.46-1.055-1.027
				c0-0.567,0.472-1.026,1.055-1.026C78.879,135.549,79.351,136.008,79.351,136.575z"/>
			<path style="fill:#F09535;" d="M295.055,88.625c0,0.567-0.473,1.027-1.055,1.027c-0.583,0-1.055-0.46-1.055-1.027
				s0.473-1.027,1.055-1.027C294.583,87.598,295.055,88.058,295.055,88.625z"/>
			<path style="fill:#F09535;" d="M375.98,445.535c0,0.567-0.473,1.027-1.055,1.027c-0.583,0-1.055-0.46-1.055-1.027
				c0-0.567,0.473-1.027,1.055-1.027C375.508,444.508,375.98,444.968,375.98,445.535z"/>
			<path style="fill:#F09535;" d="M126.792,332.615c0,0.567-0.472,1.027-1.055,1.027c-0.583,0-1.055-0.46-1.055-1.027
				c0-0.567,0.473-1.027,1.055-1.027C126.319,331.588,126.792,332.048,126.792,332.615z"/>
			<path style="fill:#F09535;" d="M139.961,269.591c0,0.567-0.473,1.026-1.055,1.026c-0.583,0-1.055-0.46-1.055-1.026
				c0-0.567,0.473-1.027,1.055-1.027C139.488,268.564,139.961,269.024,139.961,269.591z"/>
			<path style="fill:#F09535;" d="M211.936,398.221c0,0.567-0.473,1.027-1.055,1.027c-0.583,0-1.055-0.46-1.055-1.027
				c0-0.567,0.472-1.027,1.055-1.027C211.464,397.194,211.936,397.654,211.936,398.221z"/>
			<path style="fill:#F09535;" d="M210.881,89.652c0,0.567-0.473,1.027-1.055,1.027s-1.055-0.46-1.055-1.027
				s0.473-1.027,1.055-1.027S210.881,89.085,210.881,89.652z"/>
		</g>
		<g>
			<ellipse style="fill:#FFFFFF;" cx="106.729" cy="88.625" rx="3.25" ry="5.037"/>
			<ellipse style="fill:#FFFFFF;" cx="278.33" cy="439.471" rx="3.25" ry="5.037"/>
			<ellipse style="fill:#FFFFFF;" cx="407.881" cy="195.095" rx="2.196" ry="2.136"/>
			<ellipse style="fill:#FFFFFF;" cx="114.538" cy="428.812" rx="2.196" ry="2.136"/>
			<ellipse style="fill:#FFFFFF;" cx="243.991" cy="61.605" rx="1.055" ry="1.027"/>
			<path style="fill:#FFFFFF;" d="M443.548,121.285c0,0.567-0.473,1.027-1.055,1.027s-1.055-0.46-1.055-1.027
				c0-0.567,0.473-1.026,1.055-1.026S443.548,120.718,443.548,121.285z"/>
			<path style="fill:#FFFFFF;" d="M126.792,439.47c0,0.567-0.472,1.027-1.055,1.027s-1.055-0.46-1.055-1.027
				c0-0.567,0.473-1.027,1.055-1.027S126.792,438.904,126.792,439.47z"/>
			<path style="fill:#FFFFFF;" d="M53.93,347.375c0,0.567-0.472,1.027-1.055,1.027c-0.583,0-1.055-0.46-1.055-1.027
				c0-0.567,0.472-1.027,1.055-1.027C53.458,346.348,53.93,346.808,53.93,347.375z"/>
			<path style="fill:#FFFFFF;" d="M387.218,278.337c0,0.567-0.473,1.027-1.055,1.027c-0.583,0-1.055-0.46-1.055-1.027
				c0-0.567,0.473-1.027,1.055-1.027C386.746,277.311,387.218,277.771,387.218,278.337z"/>
		</g>
		<g>
			<g>
				<path style="fill:#F09535;" d="M365.551,214.236c-1.033-14.063,11.941-20.395,14.189-14.627
					C382.127,205.737,369.797,209.657,365.551,214.236z"/>
				<path style="opacity:0.3;fill:#F09535;" d="M371.443,202.89c0.79,1.993,6.156-2.781,4.688-3.594
					C374.661,198.483,370.724,201.077,371.443,202.89z"/>
				<path style="fill:#FFFFFF;" d="M366.179,208.03c-0.045,0-0.09-0.006-0.135-0.019c-0.267-0.075-0.421-0.351-0.347-0.617
					c1.195-4.258,3.93-7.813,7.315-9.509c0.244-0.124,0.547-0.024,0.671,0.223c0.123,0.247,0.023,0.547-0.224,0.671
					c-3.137,1.573-5.68,4.895-6.8,8.886C366.598,207.886,366.397,208.03,366.179,208.03z"/>
				<path style="fill:#C97324;" d="M380.039,201.211c-1.22,4.053-9.885,8.187-14.302,8.364c-0.23,1.442-0.309,2.995-0.187,4.662
					C369.415,210.068,379.97,206.446,380.039,201.211z"/>
			</g>
			<g>
				<path style="fill:#F09535;" d="M92.313,327.606c-14.281-5.719-26.319,4.938-21.658,9.012
					C75.607,340.946,86.563,330.044,92.313,327.606z"/>
				<path style="fill:#C97324;" d="M69.674,334.88c0.099,0.649,0.415,1.243,0.981,1.738c4.951,4.327,15.908-6.575,21.658-9.012
					C86.571,327.725,74.094,338.313,69.674,334.88z"/>
				<path style="opacity:0.3;fill:#F09535;" d="M72.024,332.802c0.938,1.296,6.539-1.805,4.734-2.695
					C74.954,329.216,71.04,331.442,72.024,332.802z"/>
				<path style="fill:#FFFFFF;" d="M75.603,328.295c-0.187,0-0.366-0.104-0.452-0.285c-0.119-0.249-0.013-0.547,0.236-0.666
					c3.38-1.612,7.422-2.221,11.388-1.708c0.274,0.035,0.467,0.286,0.432,0.56c-0.035,0.274-0.277,0.472-0.56,0.433
					c-3.773-0.488-7.621,0.088-10.829,1.618C75.749,328.279,75.675,328.295,75.603,328.295z"/>
			</g>
			<g>
				<path style="fill:#F09535;" d="M141.47,395.643c-2.529,0.772,0.546,3.678-0.469,4.641c-2.297,2.18-3.703,6.375,1.219,7.125
					C147.301,408.183,149.767,393.112,141.47,395.643z"/>
				<path style="fill:#C97324;" d="M142.22,406.33c-2.124-0.324-3.065-1.29-3.269-2.458c-0.255,1.619,0.517,3.116,3.269,3.536
					c2.837,0.432,4.857-4.076,4.644-7.702C146.676,403.085,144.781,406.72,142.22,406.33z"/>
				<path style="opacity:0.3;fill:#F09535;" d="M142.439,396.518c-1.016,0.668,2.672,2.078,2.813,1.609
					C145.392,397.658,144.267,395.316,142.439,396.518z"/>
			</g>
		</g>
	</g>
	<g>
		<g>
			<path style="fill:#E04419;" d="M402.483,223.001c-2.215-5.74,0.072-9.971,4.958-11.884c4.886-1.913,10.199,1.602,16.566-0.851
				c3.697-1.424,6.82-3.031,7.538-2c0.719,1.031,0.11,4.766-4.618,9.92c-5.663,6.174-10.432,9.148-15.507,8.749
				C408.993,226.744,403.514,225.673,402.483,223.001z"/>
			<path style="opacity:0.25;fill:#FFFFFF;" d="M404.906,215.969c0.971,2.471,9.063-2.969,7.938-3.75
				C411.719,211.438,403.469,212.313,404.906,215.969z"/>
			<path style="fill:#942B13;" d="M402.089,221.819c0.112,0.387,0.239,0.779,0.394,1.181c1.031,2.673,6.51,3.743,8.938,3.934
				c5.075,0.399,9.844-2.575,15.507-8.749c4.728-5.154,5.337-8.888,4.618-9.92c-0.076-0.109-0.185-0.183-0.313-0.237
				c-2.051,7.596-13.295,17.284-22.467,15.031c0,0,2.96-3.37,1.702-4.06C409.812,218.641,402.999,222.211,402.089,221.819z"/>
			<path style="fill:#1C7F36;" d="M387.108,224.976c6.406,1.958,13.937-2.367,13.937-2.367c-0.594-3.313,1.125-6.996,1.125-6.996
				c0.656,2.403,1.363,4.343,1.969,4.536c1.031,0.328,5.905-1.514,6.328-1.148c0.6,0.519-1.688,3.234-3.656,4.001
				c3.005,1.301,5.804,4.26,5.804,4.26c-6.913-0.639-10.349-2.814-10.349-2.814c-6.117,5.438-15.158,2.288-15.158,2.288
				C386.35,225.586,387.108,224.976,387.108,224.976z"/>
			<path style="fill:#FFFFFF;" d="M390.742,225.99c-1.257,0-2.535-0.155-3.78-0.535c-0.264-0.081-0.412-0.36-0.332-0.624
				c0.081-0.264,0.356-0.415,0.625-0.332c5.419,1.655,11.798-1.408,13.242-2.162c-0.44-3.323,1.149-6.785,1.22-6.936
				c0.054-0.116,0.148-0.204,0.262-0.251c0.982-1.979,2.797-3.528,5.279-4.5c2.407-0.942,4.86-0.638,7.457-0.316
				c2.872,0.355,5.843,0.724,9.112-0.535c0.74-0.285,1.457-0.577,2.136-0.854c3.126-1.274,5.188-2.118,5.992-0.965
				c0.158,0.227,0.103,0.538-0.125,0.696c-0.225,0.158-0.537,0.103-0.695-0.124c-0.348-0.495-2.917,0.554-4.794,1.319
				c-0.685,0.279-1.408,0.574-2.154,0.862c-3.502,1.347-6.739,0.946-9.595,0.594c-2.466-0.305-4.797-0.596-6.969,0.256
				c-2.418,0.946-4.124,2.476-4.935,4.422c-0.05,0.118-0.14,0.209-0.25,0.26c-0.413,1.049-1.343,3.79-0.901,6.257
				c0.037,0.208-0.06,0.417-0.243,0.521C401.039,223.189,396.088,225.99,390.742,225.99z"/>
		</g>
		<g>
			<path style="fill:#1CC73E;" d="M189.917,410.464c4.437-4.263,9.222-3.792,12.877-0.026c3.655,3.765,2.468,10.024,7.194,14.947
				c2.744,2.858,5.434,5.116,4.761,6.178c-0.673,1.062-4.352,1.945-10.934-0.421c-7.884-2.834-12.472-6.08-14.068-10.914
				C188.985,417.915,187.852,412.449,189.917,410.464z"/>
			<path style="fill:#FFFFFF;" d="M209.988,425.885c-0.131,0-0.263-0.052-0.361-0.153c-2.598-2.707-3.481-5.848-4.26-8.618
				c-0.672-2.394-1.308-4.654-2.932-6.327c-0.192-0.198-0.187-0.515,0.011-0.707c0.198-0.193,0.515-0.188,0.707,0.01
				c1.8,1.855,2.469,4.234,3.177,6.754c0.783,2.787,1.594,5.67,4.019,8.195c0.191,0.199,0.185,0.517-0.015,0.707
				C210.238,425.839,210.113,425.885,209.988,425.885z"/>
			<path style="opacity:0.25;fill:#FFFFFF;" d="M197.339,409.978c-1.903,1.852,6.244,7.208,6.529,5.869
				C204.153,414.507,200.155,407.237,197.339,409.978z"/>
			<path style="fill:#1CC73E;" d="M190.854,409.643c-0.314,0.253-0.626,0.522-0.937,0.821c-2.066,1.985-0.933,7.452-0.17,9.764
				c1.596,4.834,6.183,8.081,14.068,10.914c6.582,2.365,10.261,1.482,10.934,0.421c0.071-0.113,0.097-0.242,0.097-0.38
				c-7.798,1.048-21.081-5.573-22.553-14.902c0,0,4.253,1.426,4.402-0.002C196.774,415.535,190.845,410.634,190.854,409.643z"/>
			<path style="fill:#1C7F36;" d="M182.147,397.051c0.673,6.665,7.575,11.936,7.575,11.936c2.825-1.829,6.887-1.669,6.887-1.669
				c-1.962,1.535-3.477,2.937-3.421,3.57c0.096,1.078,3.681,4.859,3.507,5.391c-0.246,0.754-3.635-0.305-5.104-1.824
				c-0.037,3.274-1.683,7-1.683,7c-2.085-6.622-1.409-10.632-1.409-10.632c-7.381-3.537-7.974-13.092-7.974-13.092
				C181.292,396.587,182.147,397.051,182.147,397.051z"/>
		</g>
		<g>
			<path style="fill:#1C7F36;" d="M384.328,306.359c2.25-14.234,11.61-23.04,14.813-22.881c6.703,0.334,6.961,7.197,7.594,6.532
				c0.633-0.665,2.984-4.448,6.513-3.73c4.109,0.836,3.749,4.03,4.876,3.414c1.127-0.616,7.288-2.819,8.637-1.085
				c1.349,1.734-0.792,10.922-5.323,14.984c-6.095,5.465-11.559,0.973-12.281,2.765c-0.723,1.793-4.344,7.797-9.125,7.844
				c-3.218,0.032-5.961-1.828-8.676-1.594C388.641,312.844,383.668,310.535,384.328,306.359z"/>
			<path style="fill:#1CC73E;" d="M426.221,295.476c0.999-3.118,1.232-5.976,0.54-6.866c-1.349-1.734-7.51,0.469-8.637,1.085
				c-1.127,0.616-0.766-2.579-4.876-3.414c-3.529-0.717-5.88,3.065-6.513,3.73c-0.633,0.665-0.891-6.198-7.594-6.532
				c2.047,1.584-5.516,13.584,0.734,15.647c0.279,0.092,0.548,0.157,0.813,0.21c-1.423,3.177-5.642,11.961-9.333,13.275
				c1.311-0.113,2.629,0.263,4.004,0.678c2.892-3.403,5.938-9.99,5.944-13.862c5.22,0.486,7.469-6.517,8.447-6.862
				c1.062-0.375,0.75,6.313,5,5.438s7.83-6.541,9.875-6.938C426.67,290.666,426.221,295.476,426.221,295.476L426.221,295.476z"/>
			<path style="fill:#1CC73E;" d="M426.76,288.609c-1.349-1.734-7.51,0.469-8.637,1.085c-1.127,0.616-0.766-2.579-4.876-3.414
				c-3.529-0.717-5.88,3.065-6.513,3.73c-0.633,0.665-0.891-6.198-7.594-6.532c3.117,0.631-3.305,13.123,2.297,13.584
				c3.433,0.283,4.229-6.461,9.186-7.749c2.392-0.622,1.064,4.67,3.533,5.437c3.422,1.063,7.226-6.237,11.313-6.063
				c1.81,0.077,1.208,4.375,0.752,6.788C427.22,292.358,427.453,289.5,426.76,288.609z"/>
			<path style="fill:#FFFFFF;" d="M384.329,306.859c-0.026,0-0.053-0.002-0.079-0.006c-0.273-0.043-0.459-0.3-0.416-0.572
				c2.288-14.474,11.72-23.305,15.232-23.305c0.033,0,0.066,0.001,0.1,0.003c1.889,0.376,1.436,3.016,0.912,6.071
				c-0.447,2.613-0.955,5.574,0.037,6.853c0.305,0.394,0.751,0.609,1.363,0.66c1.369,0.106,2.298-1.222,3.461-2.915
				c1.325-1.927,2.828-4.11,5.558-4.82c0.27-0.067,0.541,0.092,0.61,0.358c0.069,0.268-0.092,0.54-0.358,0.61
				c-2.369,0.615-3.759,2.636-4.985,4.418c-1.24,1.803-2.415,3.522-4.367,3.345c-0.894-0.073-1.592-0.425-2.072-1.044
				c-1.261-1.627-0.737-4.681-0.231-7.635c0.381-2.221,0.813-4.738-0.052-4.913c-2.506-0.142-11.914,7.886-14.219,22.469
				C384.783,306.684,384.57,306.859,384.329,306.859z"/>
		</g>
		<g>
			<path style="fill:#AF52DB;" d="M389.656,119.996c-5.533-2.947-11.905-2.636-15.189,1.896c-6.656,9.188-8.302,26.79-8.125,28.063
				c0.18,1.289,4.609,2.336,4.609,2.336s7.875-24.867,10.5-28.102S389.656,119.996,389.656,119.996z"/>
			<g>
				<path style="fill:#AF52DB;" d="M375.507,138.622c-2.574-0.781-5.233-1.614-7.081-2.25c-0.164,0.661-0.317,1.313-0.46,1.956
					c1.915,0.657,4.493,1.462,6.884,2.187C375.066,139.889,375.286,139.256,375.507,138.622z"/>
				<path style="fill:#AF52DB;" d="M373.087,124.043c3.202,1.182,5.343,2.186,6.815,3.037c0.315-0.706,0.607-1.309,0.874-1.806
					c-1.51-0.858-3.611-1.837-6.601-2.957C373.796,122.867,373.433,123.443,373.087,124.043z"/>
				<path style="fill:#AF52DB;" d="M378.085,131.536c-2.492-0.702-5.325-1.459-7.571-1.954c-0.235,0.624-0.458,1.254-0.67,1.889
					c1.935,0.434,4.661,1.144,7.532,1.946C377.615,132.772,377.851,132.146,378.085,131.536z"/>
				<path style="fill:#AF52DB;" d="M381.132,118.152c-1.399,0.154-2.717,0.567-3.892,1.245c2.259,0.219,5.266,1.182,7.521,2.264
					c0.82-0.418,1.645-0.747,2.378-0.995C385.537,119.71,383.328,118.783,381.132,118.152z"/>
				<path style="fill:#AF52DB;" d="M372.768,146.7c-2.144-0.713-4.314-1.516-5.913-2.29c-0.109,0.751-0.199,1.447-0.272,2.076
					c1.653,0.753,3.654,1.484,5.559,2.118C372.334,148.018,372.543,147.381,372.768,146.7z"/>
			</g>
			<path style="fill:#D2F0F7;" d="M384.82,123.92c10.835,4.488,7.986,19.441,7.119,34.008c-0.139,2.336,4.513,2.527,4.513,2.527
				C403.064,122.452,387.374,119.799,384.82,123.92z"/>
			<path style="fill:#FFFFFF;" d="M397.116,160.173c5.071-17.436,1.946-38.499-9.304-40.742
				c-11.25-2.243-15.359,20.182-16.859,32.861c0,0,2.367,0.773,3.539,0.094c0,0,5.07-31.193,13.094-29.018
				c12.961,3.514,6.864,32.886,6.594,35.299C394.139,160.143,396.843,160.908,397.116,160.173z"/>
		</g>
		<g>
			<path style="fill:#AF52DB;" d="M85.648,378.933c1.828,5.996,6.554,10.282,12.081,9.399c11.203-1.79,24.814-13.073,25.588-14.098
				c0.785-1.039-1.607-4.911-1.607-4.911s-23.152,12.015-27.295,12.446C90.271,382.2,85.648,378.933,85.648,378.933z"/>
			<g>
				<path style="fill:#AF52DB;" d="M108.823,375.767c1.268,2.372,2.559,4.841,3.416,6.598c0.583-0.351,1.153-0.704,1.708-1.058
					c-0.89-1.819-2.143-4.21-3.321-6.414C110.031,375.183,109.428,375.475,108.823,375.767z"/>
				<path style="fill:#AF52DB;" d="M100.226,387.788c-1.429-3.1-2.233-5.324-2.671-6.967c-0.722,0.276-1.355,0.496-1.895,0.659
					c0.461,1.675,1.254,3.852,2.577,6.758C98.893,388.117,99.557,387.967,100.226,387.788z"/>
				<path style="fill:#AF52DB;" d="M101.99,378.955c1.266,2.259,2.734,4.797,3.972,6.735c0.607-0.275,1.211-0.563,1.81-0.862
					c-1.062-1.675-2.487-4.105-3.95-6.702C103.196,378.413,102.586,378.689,101.99,378.955z"/>
				<path style="fill:#AF52DB;" d="M90.372,386.264c1.098,0.88,2.322,1.52,3.632,1.871c-1.443-1.752-2.888-4.56-3.717-6.919
					c-0.876-0.284-1.691-0.635-2.385-0.978C88.359,382.048,89.265,384.265,90.372,386.264z"/>
				<path style="fill:#AF52DB;" d="M116.472,371.992c1.012,2.02,1.978,4.122,2.561,5.8c0.608-0.454,1.164-0.883,1.66-1.275
					c-0.637-1.701-1.534-3.633-2.434-5.428C117.712,371.367,117.113,371.669,116.472,371.992z"/>
			</g>
			<path style="fill:#D2F0F7;" d="M91.842,379.577c-4.488-10.835,8.1-19.393,19.014-29.082c1.75-1.554-1.404-4.978-1.404-4.978
				C77.904,367.716,87.122,380.686,91.842,379.577z"/>
			<path style="fill:#FFFFFF;" d="M108.782,345.249c-15.914,8.743-28.599,25.847-22.23,35.388
				c6.369,9.541,25.132-3.41,35.157-11.315c0,0-1.127-2.221-2.436-2.569c0,0-25.642,18.471-29.777,11.26
				c-6.68-11.65,18.401-28.107,20.297-29.623C110.866,347.375,109.496,344.922,108.782,345.249z"/>
		</g>
		<g>
			<g>
				<path style="fill:#F09535;" d="M87.067,265.328c-2.729-2.663-10.488,3.429-8.02,6.138
					c10.144,11.132,22.623,31.388,25.123,39.306s9.402,2.492,9.397,0.652C113.54,302.031,101.805,279.713,87.067,265.328z"/>
				<g>
					<path style="fill:#C97324;" d="M112.588,313.077c-6.231,2.729-6.07-8.45-9.025-11.077c-3.172-2.82-3.393-7.43-6.227-10.156
						c-3.085-2.969-0.96-5.844-6.492-9.375c-2.849-1.819-4.031-5.063-6.094-7.219c-1.585-1.657-4.099-3.007-6.123-5.525
						c-0.135,0.643-0.028,1.248,0.421,1.74c10.144,11.132,22.623,31.388,25.122,39.306
						C106.088,316.846,110.595,315.066,112.588,313.077z"/>
					<path style="fill:#C97324;" d="M88.406,276c-1.75-0.065,2.122,6.094,3.826,5.156C93.937,280.219,90.937,276.094,88.406,276z"/>
					<path style="fill:#C97324;" d="M101.133,293.977c-0.061,1.534,1.864,4.954,3.539,5.233c2.097,0.349,2.729-2.725,1.247-2.678
						c-1.482,0.047-1.981-2.178-2.021-2.883C103.805,291.984,101.183,292.71,101.133,293.977z"/>
				</g>
				<path style="opacity:0.25;fill:#191818;" d="M113.567,311.424c-0.004-1.336-0.252-2.941-0.705-4.74
					c-3.543-2.812-9.222-6.758-14.59-8.071c2.857,4.968,5.01,9.344,5.898,12.158C106.669,318.689,113.572,313.263,113.567,311.424z"
					/>
				<g style="opacity:0.3;">
					<path style="fill:#F09535;" d="M102.312,289.094c-2.415,0.381,0.188,3.031,0.844,2.406
						C103.812,290.875,104.687,288.719,102.312,289.094z"/>
					<path style="fill:#F09535;" d="M81.156,270.594c-0.988-0.988,2.281-6.125,4.5-4.844c2.219,1.281,6.344,6.125,6.531,6.75
						c0.188,0.625-1.031,1.438-2.5-0.438c-1.469-1.875-2.219-6.344-4.094-4.313C83.719,269.781,82.25,271.688,81.156,270.594z"/>
					<path style="fill:#F09535;" d="M97.812,281.406c-1.259,0.182,2.406,5.75,3.031,5.219
						C101.469,286.094,99.969,281.094,97.812,281.406z"/>
				</g>
				<path style="fill:#FFFFFF;" d="M107.726,294.288c-0.182,0-0.357-0.1-0.446-0.272c-5.325-10.446-12.819-20.771-20.562-28.33
					c-1.267-1.235-4.155-0.095-6.06,1.746c-1.131,1.093-2.135,2.717-1.241,3.697c0.186,0.204,0.171,0.521-0.033,0.706
					c-0.204,0.188-0.52,0.172-0.707-0.032c-1.15-1.263-0.658-3.213,1.286-5.091c2.282-2.204,5.694-3.461,7.453-1.741
					c7.818,7.631,15.383,18.052,20.754,28.59c0.125,0.246,0.028,0.548-0.218,0.673C107.88,294.271,107.802,294.288,107.726,294.288z
					"/>
			</g>
			<g>
				<path style="fill:#F09535;" d="M70.705,290.906c-3.749-0.694-6.805,8.686-3.247,9.563c14.623,3.603,36.264,13.488,42.747,18.675
					c6.483,5.188,9.198-3.162,8.17-4.688C113.125,306.668,90.955,294.656,70.705,290.906z"/>
				<g>
					<path style="fill:#C97324;" d="M117.454,318.848c-4.329,0.708-10.563-4.978-13.524-7.598c-3.32-2.938-6.618-2.125-10.055-3.375
						c-3.438-1.25-5.438-4.5-8-6.188c-2.563-1.688-7.5-0.688-10.625-1.063c-2.871-0.345-5.638-0.911-8.975-5.311
						c-0.71,2.306-0.542,4.729,1.183,5.155c14.623,3.603,36.265,13.488,42.747,18.675
						C113.743,321.976,116.157,320.772,117.454,318.848z"/>
					<path style="fill:#C97324;" d="M92.233,302.625c-2.274,0.129,3.392,6.328,4.752,4.125
						C98.344,304.547,95.544,302.438,92.233,302.625z"/>
				</g>
				<g style="opacity:0.3;">
					<path style="fill:#F09535;" d="M69.937,294.141c-2.976,2.097,7.608,4.875,8.632,3.422
						C79.594,296.109,72,292.688,69.937,294.141z"/>
					<path style="fill:#F09535;" d="M108.328,312.703c1.4,3.449,6.697,4.262,7.5,3.656c1.336-1.008,0.085-3.627-1.125-3
						c-1.898,0.984-3.366-1.113-3.961-1.828C109.477,310.008,108,311.895,108.328,312.703z"/>
					<path style="fill:#F09535;" d="M109.244,309.119c-0.219,0.479-0.988,0.597-1.718,0.263c-0.73-0.333-1.145-0.992-0.926-1.471
						c0.219-0.479,0.988-0.597,1.718-0.263C109.048,307.982,109.462,308.64,109.244,309.119z"/>
				</g>
				<path style="fill:#FFFFFF;" d="M118.375,314.957c-0.161,0-0.318-0.077-0.415-0.221c-5.189-7.699-27.002-19.571-47.346-23.339
					c-0.272-0.05-0.451-0.311-0.401-0.582c0.05-0.272,0.309-0.455,0.583-0.4c20.577,3.811,42.696,15.902,47.994,23.763
					c0.154,0.229,0.094,0.54-0.135,0.694C118.569,314.93,118.472,314.957,118.375,314.957z"/>
			</g>
		</g>
	</g>
	<g>
		<path style="fill:#F09535;" d="M146.497,361.444c80.414,7.958,162.726,8.945,187.109,6.056c0,0,15.332-0.667,18.944-3.926
			c2.482-2.239-6.484-84.907-9.245-112.23c-2.761-27.322-7.398-86.063-6.555-96.844c0.844-10.781,5.25-31.647,0.703-33.215
			c-7.396-2.55-65.212-4.878-83.082-3.519c-17.871,1.359-81.996,2.734-81.996,2.734s-12.769,101.776-15.752,123.981
			c-2.613,19.447-11.527,94.232-13.701,112.508C142.657,359.213,144.268,361.223,146.497,361.444z"/>
		<g>
			<circle style="fill:#FFFFFF;" cx="242.826" cy="259.082" r="55"/>
			<ellipse style="fill:#D2F0F7;" cx="242.826" cy="290.504" rx="26" ry="6"/>
			<g>
				<path style="fill:#191818;" d="M275.834,278.397c-0.085,0-0.17-0.022-0.248-0.066c-0.24-0.137-0.323-0.442-0.185-0.682
					c3.223-5.633,4.926-12.053,4.926-18.566c0-1.692-0.115-3.398-0.341-5.07c-0.037-0.274,0.154-0.525,0.428-0.563
					c0.277-0.046,0.526,0.153,0.563,0.428c0.232,1.717,0.351,3.468,0.351,5.205c0,6.688-1.749,13.279-5.059,19.063
					C276.176,278.306,276.007,278.397,275.834,278.397z"/>
				<path style="fill:#191818;" d="M209.818,278.397c-0.173,0-0.342-0.09-0.435-0.252c-3.309-5.783-5.059-12.375-5.059-19.063
					c0-1.742,0.118-3.493,0.351-5.205c0.038-0.273,0.29-0.473,0.563-0.428c0.273,0.037,0.465,0.289,0.428,0.563
					c-0.227,1.667-0.342,3.373-0.342,5.07c0,6.514,1.704,12.934,4.927,18.566c0.137,0.239,0.054,0.545-0.186,0.682
					C209.988,278.375,209.902,278.397,209.818,278.397z"/>
			</g>
			<g>
				<g>
					<path style="fill:#F09535;" d="M264.401,271.625H221.25c-2.188,3.813-3.818,10.52-1.313,14.063
						c1.813,2.563,12.688,4.625,22.888,4.625c10.201,0,21.076-2.063,22.888-4.625C268.22,282.145,266.589,275.438,264.401,271.625z"
						/>
					<path style="fill:#C97324;" d="M221.25,271.625c-0.537,0.935-1.039,2.046-1.455,3.24c2.398,3.391,9.611,4.831,23.233,4.831
						c13.121,0,20.296-1.336,22.949-4.464c-0.439-1.332-0.985-2.576-1.576-3.606H221.25z"/>
					<path style="fill:#C97324;" d="M242.826,286.813c-9.997,0-20.589-1.687-23.977-3.905c0.187,1.037,0.531,1.99,1.089,2.78
						c1.813,2.563,12.688,4.625,22.888,4.625c10.201,0,21.076-2.063,22.888-4.625c0.558-0.79,0.902-1.742,1.089-2.78
						C263.415,285.125,252.822,286.813,242.826,286.813z"/>
				</g>
				<g>
					<ellipse style="fill:#94411E;" cx="243.028" cy="271.82" rx="23.159" ry="6.875"/>
					<path style="fill:#632C0A;" d="M243.028,276.608c-15.748,0-21.534-1.957-23.159-4.778c0.007,3.896,4.195,6.865,23.159,6.865
						c18.963,0,23.151-2.969,23.159-6.865C264.563,274.651,258.776,276.608,243.028,276.608z"/>
					<path style="fill:#632C0A;" d="M266.149,271.219c-0.44-3.6-5.13-6.274-23.12-6.274c-18.096,0-22.734,2.705-23.127,6.337
						c0.166,0.019,0.33,0.041,0.503,0.041c2.009,0,4.215-1.258,6.683-2.776c1.066-0.656,2.499-1.049,3.834-1.049
						c0.93,0,2.628,0.206,3.564,1.587c2.104,3.104,5.799,4.517,8.342,4.517c2.542,0,6.236-1.413,8.341-4.517
						c0.935-1.381,2.635-1.587,3.563-1.587c1.335,0,2.768,0.393,3.834,1.049c2.467,1.518,4.672,2.776,6.684,2.776
						C265.562,271.323,265.86,271.281,266.149,271.219z"/>
				</g>
				<g>
					<path style="fill:#1CC73E;" d="M266.698,261.023h-47.745c-2.484,4.266-3.397,6.139-0.495,8.609
						c2.016,1.716,5.097-0.086,8.104-1.938c2.47-1.52,6.875-1.938,8.75,0.828c1.875,2.766,5.23,4.078,7.513,4.078
						c2.284,0,5.638-1.313,7.513-4.078c1.875-2.766,6.281-2.349,8.75-0.828c3.007,1.852,6.088,3.653,8.104,1.938
						C270.095,267.162,269.183,265.289,266.698,261.023z"/>
					<path style="fill:#1C7F36;" d="M218.645,261.556c2.017,3.837,21.158,4.824,24.186,4.824c3.019,0,22.157-0.987,24.176-4.824
						c-0.101-0.176-0.202-0.35-0.309-0.534h-47.745C218.846,261.207,218.746,261.381,218.645,261.556z"/>
				</g>
				<g>
					<path style="fill:#F09535;" d="M267.191,260.08c-0.23,4.333-21.19,5.42-24.36,5.42c-3.18,0-24.14-1.086-24.37-5.42
						c-0.16-3.023,6.94-17.498,24.37-17.498C260.251,242.582,267.351,257.058,267.191,260.08z"/>
					<path style="opacity:0.3;fill:#F09535;" d="M242.831,242.582c-8.546,0-14.603,3.481-18.545,7.385
						c1.915,3.074,6.226,3.444,9.198,1.642c3.579-2.171,9.799-3.212,11.72,1.089c1.921,4.302,9.582,0.641,10.97-1.154
						c1.198-1.549,4.854,2.302,7.521,1.065C260.011,247.789,253.279,242.582,242.831,242.582z"/>
					<path style="fill:#C97324;" d="M242.831,263.067c-2.976,0-21.521-0.952-24.077-4.626c-0.217,0.693-0.313,1.257-0.293,1.639
						c0.23,4.333,21.19,5.42,24.37,5.42c3.17,0,24.13-1.086,24.36-5.42c0.02-0.381-0.076-0.945-0.293-1.639
						C264.342,262.116,245.798,263.067,242.831,263.067z"/>
					<g>
						<path style="fill:#FFE78F;" d="M242.826,254.766c1.002,0,0.685-1.641,0-1.641S241.824,254.766,242.826,254.766z"/>
						<path style="fill:#FFE78F;" d="M242.826,247.751c1.002,0,0.685-1.641,0-1.641S241.824,247.751,242.826,247.751z"/>
						<path style="fill:#FFE78F;" d="M235.776,256.14c0.984,0.189,0.982-1.482,0.309-1.611
							C235.412,254.4,234.791,255.951,235.776,256.14z"/>
						<path style="fill:#FFE78F;" d="M239.666,259.209c0.984,0.189,0.982-1.482,0.309-1.611
							C239.303,257.469,238.682,259.021,239.666,259.209z"/>
						<path style="fill:#FFE78F;" d="M237.136,250.84c0.961,0.284,1.121-1.38,0.464-1.574
							C236.943,249.072,236.174,250.556,237.136,250.84z"/>
						<path style="fill:#FFE78F;" d="M232.144,248.602c0.577,0.685,1.649-0.588,1.255-1.057
							C233.005,247.076,231.567,247.916,232.144,248.602z"/>
						<path style="fill:#FFE78F;" d="M236.385,245.323c0.445,0.778,1.728-0.283,1.424-0.815
							C237.505,243.976,235.94,244.545,236.385,245.323z"/>
						<path style="fill:#FFE78F;" d="M224.677,252.107c0.552,0.656,1.632-0.608,1.255-1.057
							C225.554,250.602,224.124,251.451,224.677,252.107z"/>
						<path style="fill:#FFE78F;" d="M229.953,252.986c0.837,0.552,1.475-0.992,0.903-1.37
							C230.284,251.24,229.116,252.434,229.953,252.986z"/>
						<path style="fill:#FFE78F;" d="M229.153,257.515c0.9,0.441,1.337-1.172,0.722-1.473
							C229.259,255.74,228.253,257.074,229.153,257.515z"/>
						<path style="fill:#FFE78F;" d="M249.876,256.14c-0.984,0.189-0.982-1.482-0.309-1.611
							C250.24,254.4,250.861,255.951,249.876,256.14z"/>
						<path style="fill:#FFE78F;" d="M245.986,259.209c-0.984,0.189-0.982-1.482-0.309-1.611
							C246.349,257.469,246.97,259.021,245.986,259.209z"/>
						<path style="fill:#FFE78F;" d="M248.516,250.84c-0.961,0.284-1.121-1.38-0.464-1.574
							C248.709,249.072,249.478,250.556,248.516,250.84z"/>
						<path style="fill:#FFE78F;" d="M253.508,248.602c-0.577,0.685-1.65-0.588-1.255-1.057
							C252.647,247.076,254.085,247.916,253.508,248.602z"/>
						<path style="fill:#FFE78F;" d="M249.267,245.323c-0.445,0.778-1.728-0.283-1.424-0.815
							C248.148,243.976,249.712,244.545,249.267,245.323z"/>
						<path style="fill:#FFE78F;" d="M260.976,252.107c-0.552,0.656-1.632-0.608-1.255-1.057
							C260.098,250.602,261.528,251.451,260.976,252.107z"/>
						<path style="fill:#FFE78F;" d="M255.7,252.986c-0.837,0.552-1.475-0.992-0.904-1.37
							C255.368,251.24,256.536,252.434,255.7,252.986z"/>
						<path style="fill:#FFE78F;" d="M256.5,257.515c-0.9,0.441-1.337-1.172-0.722-1.473
							C256.393,255.74,257.4,257.074,256.5,257.515z"/>
					</g>
				</g>
			</g>
		</g>
		<path style="fill:#C97324;" d="M352.549,363.574c2.482-2.239-6.484-84.907-9.245-112.23c-2.76-27.322-7.398-86.063-6.555-96.844
			c0.529-6.764,2.46-17.497,2.703-24.944c-1.018-9.696-8.796-7.191-8.796,1.507c0,4.438,1.905,9.176,0.684,15
			c-0.906,4.323-1.483,9.141-1.483,9.141s-48.695-3.099-78.984-3.214c-27.746-0.105-58.447,0.956-82.432-0.221
			c-0.18,1.43-0.364,2.888-0.551,4.374c29.608,2.311,81.165-2.03,97.483-0.939c18,1.203,66.875,3.434,66.875,3.434
			s-0.489,66.846,1.355,93.069c2.863,40.701,0.03,73.495,0,115.795C333.605,367.5,348.937,366.833,352.549,363.574z"/>
		<g>
			<path style="fill:#94411E;" d="M333.62,363.238c-0.001,0-0.002,0-0.003,0c-0.276-0.002-0.499-0.227-0.497-0.503
				c0.069-12.592,0.367-24.402,0.655-35.824c0.627-24.863,1.219-48.348-0.669-75.171c-1.825-25.942-1.361-92.438-1.356-93.107
				c0.002-0.274,0.226-0.496,0.5-0.496c0.001,0,0.002,0,0.004,0c0.275,0.002,0.498,0.228,0.496,0.503
				c-0.005,0.668-0.468,67.126,1.354,93.03c1.89,26.871,1.298,50.379,0.671,75.267c-0.288,11.417-0.586,23.223-0.655,35.805
				C334.118,363.017,333.895,363.238,333.62,363.238z"/>
			<path style="fill:#94411E;" d="M329.859,155.703c-0.011,0-0.021,0-0.032-0.001c-0.486-0.031-49.025-3.1-78.954-3.212
				c-9.53-0.036-19.559,0.067-29.255,0.167c-16.175,0.167-32.901,0.339-47.32-0.147c-0.276-0.009-0.492-0.24-0.483-0.516
				c0.009-0.276,0.265-0.49,0.516-0.483c14.399,0.484,31.114,0.313,47.277,0.146c9.7-0.099,19.73-0.199,29.269-0.167
				c28.377,0.107,73.45,2.867,78.545,3.185c0.169-1.32,0.693-5.2,1.431-8.715c0.762-3.632,0.282-6.799-0.182-9.86
				c-0.264-1.747-0.514-3.397-0.514-5.037c0-4.845,2.324-7.783,4.619-8.183c1.93-0.333,3.599,0.977,4.503,3.501
				c0.093,0.26-0.042,0.546-0.302,0.64c-0.26,0.095-0.546-0.042-0.64-0.302c-0.728-2.03-1.994-3.103-3.39-2.854
				c-1.838,0.319-3.791,2.951-3.791,7.197c0,1.565,0.244,3.179,0.503,4.887c0.454,3.003,0.97,6.406,0.171,10.215
				c-0.891,4.251-1.47,9.049-1.476,9.098C330.325,155.515,330.111,155.703,329.859,155.703z"/>
		</g>
		<g>
			<path style="opacity:0.25;fill:#191818;" d="M164.169,185.62c2.468-0.01,12.497,0.1,11.893,2.568
				c-0.687,2.813,0.188,10.188,5,12.25c0,0,0.438,7.563,8.813,7.5c0,0,11.594-74.531,15.477-74.802
				c3.883-0.27,14.398,7.958,16.742,10.489c2.344,2.531,4.406,11.531,7.969,14.906c3.563,3.375,13.031,2.719,16.588-1.124
				l-28.224-38.112c-22.524,0.7-46.051,1.204-46.051,1.204S168.269,153.231,164.169,185.62z"/>
			<path style="opacity:0.25;fill:#191818;" d="M343.125,354.469c-3.514,0.952-5.719-13.969-9.031-20.253
				c0,0-28,10.503-36.431,6.706l4.462-11.641c0,0-19.563,2.313-26.031,5.875c-6.469,3.563-25.335,24.366-25.335,24.366
				s-5.508-6.928-7.73-14.937c-2.221-8.009,4.162-26.595,4.162-26.595s-18.721,15.291-19.815,18.406
				c-1.094,3.115-0.184,18.124-0.184,18.124s-62.069,8.643-82.984-8.326c-0.538,4.513-0.979,8.216-1.286,10.795
				c-0.264,2.224,1.347,4.234,3.575,4.455c80.414,7.958,162.726,8.945,187.109,6.056c0,0,15.332-0.667,18.944-3.926
				c1.042-0.94,0.067-16.045-1.619-35.278C350.156,339.469,347.186,353.369,343.125,354.469z"/>
		</g>
		<g>
			<path style="fill:#FFFFFF;" d="M145.971,331.936c-0.02,0-0.04-0.001-0.06-0.004c-0.274-0.032-0.47-0.281-0.437-0.556
				c3.837-32.063,8.801-73.176,10.653-86.962c0.786-5.849,2.314-17.693,4.544-35.206c0.035-0.273,0.29-0.464,0.559-0.433
				c0.274,0.035,0.468,0.285,0.433,0.559c-2.23,17.515-3.759,29.362-4.545,35.213c-1.852,13.781-6.814,54.889-10.651,86.949
				C146.436,331.75,146.221,331.936,145.971,331.936z"/>
			<path style="fill:#FFFFFF;" d="M337.453,121.785c-0.054,0-0.109-0.009-0.163-0.027c-7.179-2.475-64.499-4.891-82.881-3.493
				c-3.446,0.262-8.888,0.544-16.174,0.838c-0.29,0.015-0.509-0.204-0.52-0.479c-0.011-0.276,0.204-0.508,0.479-0.52
				c7.274-0.294,12.704-0.575,16.138-0.836c18.45-1.403,76.045,1.049,83.283,3.545c0.261,0.09,0.399,0.375,0.31,0.636
				C337.854,121.655,337.66,121.785,337.453,121.785z"/>
		</g>
	</g>
	<g>
		<defs>
			<path id="SVGID_1_" d="M500,500H0V0h500V500z"/>
		</defs>
		<clipPath id="SVGID_00000137818612795625546800000004438068167172662662_">
			<use xlink:href="#SVGID_1_"  style="overflow:visible;"/>
		</clipPath>
		<g style="clip-path:url(#SVGID_00000137818612795625546800000004438068167172662662_);">
			<path style="fill:#94411E;" d="M536.89,336.38v65.99c-53.14,5.88-112.291,2.415-127.46,4.6c-54.024,7.78-93.68-0.751-93.68-0.751
				c-7.781,1.406-14.438-2.25-14.438-2.25c-9,1.031-12.609-3.563-12.609-3.563c-6.422,2.906-13.107,0.494-15.577-2.42
				c-2.001-2.361-2.657-5.033-2.657-5.033S240,368.71,238.19,363.57c-1.81-5.13-5.383-23.271-4.143-28.461
				c1.26-5.19,13.143-17.119,13.143-17.119c5.466,0.948,9.269,6.304,8.269,9.994c-1,3.69-6.316,8.533-6.769,12.136
				c-0.277,2.209,3.324,13.553,4.201,15.239c1.219,2.344,8.133,7.727,8.133,7.727c-1.524-3.961-0.111-6.09-0.111-6.09
				s16.146-18.725,21.137-21.377c5.637-2.995,20.075-6.339,20.075-6.339c1.94,2.39,3.469,8.219-0.781,10.719
				s-8.781,3.333-11.724,5.19c-3.607,2.276-9.3,12.5-9.18,13.37c0.12,0.88,0.81,2.25,0.81,2.25s12.083-9.485,18.09-11.78
				c6.785-2.592,25.13-4.4,25.13-4.4c7.342,4.307-0.7,11.29-0.7,11.29l2.2-0.51c2.91,1.31,4.717,6.777-3.05,11.42l10.69,0.67
				c0,0,15.33-0.67,18.94-3.93c0.63-0.57,0.52-6.42-0.04-15.26c19.677,0.988,42.37,9.11,47.9,8.53
				C405.94,356.25,536.89,336.38,536.89,336.38z"/>
			<g style="opacity:0.25;">
				<path style="fill:#191818;" d="M270.469,392.953l-9.445-29.867c0,0-1.228-0.957-2.736-2.235
					c2.48,9.709,4.285,18.224,4.014,25.46C266.981,390.178,270.468,392.953,270.469,392.953z"/>
				<path style="fill:#191818;" d="M536.89,384.948c-57.582,11.245-122.574,17.116-122.796,12.27
					c-1.406-30.711-10.988-33.493-10.988-33.493c8.019,14.399,3.874,35.275,3.874,35.275c-45.604,12.124-91.387-0.122-118.042-1.407
					c-3.891-0.188-12.093,2.531-18.469-4.641c0,0.001,0.657,2.672,2.657,5.033c2.47,2.914,9.155,5.326,15.577,2.42
					c0,0,3.609,4.594,12.609,3.563c0,0,6.656,3.656,14.438,2.25c0,0,39.656,8.531,93.68,0.751c15.169-2.185,74.32,1.28,127.46-4.6
					V384.948z"/>
				<path style="fill:#191818;" d="M289.62,345.19c2.942-1.857,7.474-2.69,11.724-5.19c2.154-1.267,2.82-3.389,2.704-5.485
					c-0.368,2.66-13.862,6.299-16.048,8.422c-2.188,2.125-10.75,11.875-10.813,14.938c-0.062,3.063,1.886,5.211,1.886,5.211
					l2.177-2.276c0,0-0.69-1.37-0.81-2.25C280.32,357.69,286.013,347.466,289.62,345.19z"/>
				<path style="fill:#191818;" d="M343.438,366.507c-4.917,0.778-9.829,0.993-9.829,0.993l-10.69-0.67
					c-3.885,2.989-10.263,5.772-10.263,5.772c3.78,2.836,5.812,10.897,5.812,10.897
					C322.656,380.188,343.338,375.483,343.438,366.507z"/>
				<g>
					<path style="fill:#191818;" d="M298.237,365.315c1.435-1.471,25.533-9.395,25.533-9.395s3.613-3.143,3.78-6.512
						c-3.268,4.732-7.768,5.47-16.065,7.264c-7.588,1.641-13.453,4.819-14.391,6.066c-0.729,0.969,0.153,4.702,0.583,6.32
						C297.453,368.06,297.254,366.321,298.237,365.315z"/>
					<path style="fill:#191818;" d="M297.677,369.057c0.103,0.459,0.211,0.762,0.211,0.762S297.8,369.52,297.677,369.057z"/>
				</g>
			</g>
			<g>
				<path style="fill:#FFE78F;" d="M316.811,358.002c0,0,1.095,2.936,3.725,4.529c0.343,0.208,5.213-1.813,5.588-3.313
					s-0.348-3.608-3.658-2.913C319.156,357,316.811,358.002,316.811,358.002z"/>
				<path style="fill:#FFE78F;" d="M314.375,346.844c-0.598,0.423,1.733,4.594,3.413,4.906s5.774-0.313,7.649-1.656
					c1.875-1.344,0.978-4.75-1.667-4.813C321.125,345.219,315.125,346.313,314.375,346.844z"/>
				<path style="fill:#FFE78F;" d="M291.33,332.162c0.233,1.729,1.311,3.932,2.998,4.213c1.688,0.281,8.25-2.297,9.047-3.422
					c0.797-1.125,0.406-3.641-1.25-3.672C300.469,329.25,291.33,332.162,291.33,332.162z"/>
				<path style="fill:#FFE78F;" d="M239.444,326.563c2.056,1.234,5.056,2.359,6.649,0.953c1.594-1.406,4.406-4.512,4.641-6.375
					c0.273-2.172-1.839-3.817-3.545-3.151C245.484,318.656,239.444,326.563,239.444,326.563z"/>
			</g>
			<g>
				<path style="fill:#191818;" d="M318.469,383.999c-0.226,0-0.43-0.152-0.485-0.381c-0.021-0.086-2.148-8.598-5.577-10.584
					c-0.161-0.094-0.257-0.269-0.248-0.455c0.008-0.186,0.119-0.353,0.288-0.431c0.067-0.031,6.742-3.142,10.174-5.718
					c0.22-0.167,0.534-0.121,0.699,0.1c0.166,0.221,0.122,0.534-0.1,0.699c-2.847,2.139-7.692,4.551-9.578,5.458
					c3.34,2.791,5.229,10.35,5.313,10.692c0.066,0.268-0.098,0.539-0.366,0.604C318.548,383.994,318.508,383.999,318.469,383.999z"
					/>
				<path style="fill:#191818;" d="M320.537,383.119c-0.15,0-0.3-0.068-0.398-0.198c-0.167-0.22-0.124-0.533,0.097-0.7
					c7.361-5.581,31.674-7.478,32.705-7.556c0.294-0.025,0.516,0.187,0.537,0.461c0.021,0.275-0.185,0.516-0.461,0.537
					c-0.25,0.019-25.05,1.95-32.178,7.355C320.749,383.086,320.643,383.119,320.537,383.119z"/>
				<path style="fill:#191818;" d="M301.267,384.219c-0.015,0-0.028-0.001-0.043-0.002c-0.275-0.023-0.479-0.265-0.456-0.54
					c0.124-1.472-0.716-4.218-1.605-7.125c-1.42-4.642-2.888-9.44-1.327-11.536c1.907-2.558,23.355-8.865,25.795-9.576
					c0.268-0.074,0.542,0.075,0.62,0.341c0.077,0.265-0.075,0.542-0.341,0.62c-9.45,2.753-23.979,7.48-25.272,9.213
					c-1.258,1.689,0.262,6.655,1.482,10.646c0.918,3.002,1.785,5.837,1.645,7.501C301.742,384.022,301.523,384.219,301.267,384.219z
					"/>
				<path style="fill:#191818;" d="M285.047,383.064c-0.206,0-0.398-0.128-0.472-0.333c-2.401-6.783-6.415-18.279-6.321-19.064
					c0.104-0.88,1.898-2.553,2.665-3.232c0.204-0.184,0.521-0.166,0.705,0.043c0.184,0.206,0.164,0.523-0.043,0.705
					c-1.209,1.071-2.278,2.264-2.335,2.604c0.068,0.827,3.883,11.86,6.272,18.609c0.092,0.261-0.045,0.546-0.305,0.639
					C285.158,383.055,285.102,383.064,285.047,383.064z"/>
				<path style="fill:#191818;" d="M270.187,392.141c-0.211,0-0.406-0.134-0.476-0.345c-0.065-0.201-6.578-20.208-9.165-28.563
					c-0.082-0.264,0.065-0.543,0.33-0.625c0.264-0.083,0.543,0.066,0.625,0.33c2.585,8.347,9.096,28.347,9.161,28.547
					c0.085,0.263-0.059,0.545-0.32,0.631C270.291,392.133,270.238,392.141,270.187,392.141z"/>
				<path style="fill:#191818;" d="M406.98,399.501c-0.023,0-0.048-0.002-0.071-0.005c-0.273-0.039-0.464-0.292-0.425-0.565
					c0.045-0.313,4.311-31.262-7.317-38.429c-0.234-0.146-0.308-0.453-0.163-0.689c0.146-0.235,0.454-0.306,0.689-0.163
					c12.183,7.51,7.968,38.122,7.782,39.421C407.438,399.321,407.225,399.501,406.98,399.501z"/>
				<path style="fill:#191818;" d="M342.265,367.589c-0.868,0-1.768-0.022-2.701-0.071c-0.276-0.014-0.488-0.249-0.474-0.524
					c0.014-0.275,0.221-0.504,0.525-0.474c16.132,0.822,22.192-6.234,22.251-6.306c0.177-0.213,0.492-0.239,0.704-0.065
					c0.213,0.177,0.242,0.491,0.066,0.704C362.394,361.143,356.865,367.589,342.265,367.589z"/>
			</g>
			<path style="fill:#FFFFFF;" d="M399.773,357.369c-2.609,0-7.426-1.156-13.875-2.706c-9.277-2.228-21.983-5.28-33.414-5.854
				c-0.275-0.014-0.488-0.248-0.474-0.524c0.013-0.274,0.225-0.51,0.525-0.474c11.523,0.578,24.281,3.643,33.597,5.881
				c6.709,1.611,12.008,2.888,14.227,2.651c5.454-0.582,135.147-20.259,136.456-20.457c0.27-0.041,0.528,0.146,0.569,0.419
				c0.042,0.273-0.146,0.528-0.419,0.569c-1.31,0.199-131.024,19.879-136.502,20.463
				C400.254,357.359,400.024,357.369,399.773,357.369z"/>
		</g>
		<g style="clip-path:url(#SVGID_00000137818612795625546800000004438068167172662662_);">
			<path style="fill:#94411E;" d="M239.704,133.251c-2.266-4.063-26.172-21.164-30.561-21.446
				c-25.143-1.617-47.03,5.267-47.03,5.267s-8.487-2.884-17.312,0.018c-5.097,1.676-30.916,17.43-35.667,21.798
				c-4.751,4.368-35.418,49.562-40.842,51.612C52.75,196.375-9,216.549-9,216.549v76.532
				c86.875-44.831,116.142-69.206,116.142-69.206c17.983-6.938,23.719-15.909,30.67-17.563c18.485-4.398,24.619-7.202,24.619-7.202
				l4.005-30.601c0,0,12.628,3.958,13.379,4.937c0.448,0.584,2.887,6.028,4.904,10.527c-1.389,2.178-4.075,6.426-4.719,7.714
				c-1.836,3.673,1.282,7.07,5.045,6.442c-0.552,1.765-0.938,3.382-0.78,4.312c0.867,5.101,5.609,5.496,5.609,5.496
				s8.875-15.844,8.672-20.813c-0.094-2.312-0.472-3.186-0.472-3.186s7.777-10.286,7.057-13.595
				c-0.694-3.188-1.551-4.469-1.551-4.469s3.654-24.922,1.771-32.739c-0.752-3.122-4.064-4.927-4.064-4.927s3.978-0.256,5.145-0.117
				c3.943,0.471,16.443,8.471,19.034,11.855c2.58,3.371,6.908,14.498,9.472,16.303c5.969,4.203,11.713,1.158,11.713,1.158
				S241.556,136.571,239.704,133.251z"/>
			<g style="opacity:0.25;">
				<path style="fill:#191818;" d="M205.41,124.406c-4.885-1.701-26.744-7.078-35.752-9.271c-4.74,1.056-7.545,1.936-7.545,1.936
					c30.778,4.851,39.175,11.137,39.175,11.137s3.978-0.256,5.145-0.117c3.943,0.471,16.443,8.471,19.034,11.855
					c2.58,3.371,6.908,14.498,9.472,16.303c1.85,1.303,3.678,1.907,5.32,2.124c-4.017-4.109-9.098-18.058-11.789-20.749
					C225.469,134.625,211.601,126.563,205.41,124.406z"/>
				<path style="fill:#191818;" d="M154.995,170.433c0,0-0.37,3.973-7.594,6.094c0.661,4.379-2.135,10.013-3.421,15.16
					c-1.417,5.672-7.356,9.563-13.356,11.628c-6,2.066-25.063,17.747-33.125,20.08c0,0-14.063,2.042-26.908-18.867
					c0.752,11.471,7.558,17.194,6.939,18.868C74.719,231,38.268,248.06-9,267.686v25.394
					c86.875-44.831,116.142-69.206,116.142-69.206c17.983-6.938,23.719-15.909,30.67-17.563c18.485-4.398,24.619-7.202,24.619-7.202
					l4.005-30.601l-6.51-2.021C159.926,166.489,157.594,169.313,154.995,170.433z"/>
				<path style="fill:#191818;" d="M184.719,183.974c-1.389,2.178-4.075,6.426-4.719,7.714c-1.836,3.673,1.282,7.07,5.045,6.442
					C189.622,190.791,187.062,188.625,184.719,183.974z"/>
			</g>
			<g>
				<path style="fill:#191818;" d="M97.428,223.854c-9.21,0-18.21-3.997-28.294-20.735c-0.143-0.236-0.066-0.544,0.17-0.686
					c0.235-0.144,0.543-0.068,0.686,0.17c13.977,23.197,26.216,21.066,36.048,19.353c0.276-0.045,0.531,0.135,0.579,0.407
					c0.047,0.272-0.135,0.531-0.407,0.579C103.236,223.459,100.321,223.854,97.428,223.854z"/>
				<path style="fill:#191818;" d="M198.076,184.439c-0.186,0-0.364-0.104-0.451-0.283c-0.093-0.192-9.306-19.249-11.517-22.032
					c-3.105-3.91-27.464-12.378-27.71-12.463c-0.261-0.09-0.399-0.376-0.309-0.636c0.091-0.261,0.375-0.398,0.636-0.309
					c1.015,0.352,24.881,8.651,28.165,12.787c2.279,2.87,11.253,21.431,11.634,22.22c0.12,0.248,0.016,0.547-0.233,0.667
					C198.223,184.422,198.148,184.439,198.076,184.439z"/>
				<path style="fill:#191818;" d="M203.581,166.059c-0.191,0-0.373-0.11-0.457-0.295c-3.515-7.821-10.665-23.118-12.569-25.027
					c-1.947-1.952-21.03-7.026-28.218-8.817c-0.268-0.067-0.431-0.338-0.365-0.606c0.066-0.269,0.335-0.432,0.606-0.365
					c2.673,0.666,26.186,6.577,28.685,9.082c2.507,2.514,12.355,24.393,12.773,25.323c0.113,0.252,0.001,0.548-0.251,0.661
					C203.719,166.045,203.649,166.059,203.581,166.059z"/>
				<path style="fill:#191818;" d="M201.287,128.708c-0.09,0-0.181-0.024-0.264-0.075c-7.469-4.643-24.542-8.82-34.279-10.303
					c-0.273-0.041-0.46-0.296-0.419-0.569c0.041-0.273,0.297-0.464,0.569-0.419c9.822,1.496,27.067,5.724,34.657,10.441
					c0.234,0.146,0.306,0.454,0.161,0.689C201.617,128.625,201.454,128.708,201.287,128.708z"/>
				<path style="fill:#191818;" d="M166.436,169.01c-0.049,0-0.099-0.007-0.148-0.023l-11.07-3.437
					c-0.264-0.082-0.411-0.362-0.329-0.626c0.081-0.264,0.361-0.411,0.626-0.329l11.07,3.437c0.264,0.082,0.411,0.362,0.329,0.626
					C166.848,168.873,166.65,169.01,166.436,169.01z"/>
				<path style="fill:#191818;" d="M148.921,172.035c-2.273,0-4.717-0.417-7.094-1.429c-0.254-0.108-0.372-0.402-0.264-0.656
					c0.108-0.254,0.401-0.373,0.656-0.264c6.379,2.716,13.669,0.869,15.472-1.703c0.159-0.226,0.471-0.281,0.697-0.122
					c0.226,0.159,0.281,0.471,0.122,0.697C157.206,170.419,153.397,172.035,148.921,172.035z"/>
				<path style="fill:#191818;" d="M140.522,177.725c-0.48,0-0.787-0.01-0.855-0.013c-0.276-0.01-0.491-0.242-0.48-0.518
					c0.011-0.276,0.247-0.508,0.518-0.481c0.101,0.003,10.14,0.335,12.787-3.364c0.161-0.224,0.473-0.276,0.698-0.116
					c0.225,0.161,0.276,0.473,0.116,0.698C150.808,177.42,143.121,177.725,140.522,177.725z"/>
				<path style="fill:#191818;" d="M143.981,192.188c-0.011,0-0.021-0.001-0.032-0.001c-0.275-0.017-0.485-0.254-0.468-0.53
					c0.068-1.083,0.59-2.418,1.195-3.963c1.001-2.558,2.246-5.74,2.224-9.541c-0.001-0.276,0.221-0.501,0.497-0.503
					c0.001,0,0.002,0,0.003,0c0.275,0,0.499,0.222,0.5,0.497c0.023,3.992-1.261,7.274-2.293,9.911
					c-0.574,1.467-1.07,2.734-1.128,3.662C144.463,191.984,144.243,192.188,143.981,192.188z"/>
				<path style="fill:#191818;" d="M185.062,198.567c-0.096,0-0.192-0.027-0.278-0.084c-0.229-0.154-0.29-0.464-0.137-0.694
					c0.821-1.225,2.888-4.787,2.598-6.534c-0.369-2.218-2.939-6.995-2.965-7.043c-0.131-0.243-0.04-0.546,0.202-0.678
					c0.244-0.132,0.546-0.041,0.678,0.202c0.109,0.202,2.675,4.973,3.072,7.355c0.415,2.495-2.624,7.062-2.754,7.255
					C185.381,198.489,185.223,198.567,185.062,198.567z"/>
			</g>
			<g>
				<path style="fill:#FFE78F;" d="M194.193,199.591c0,0-1.999-1.403-3.174-0.7c-1.175,0.703-2.909,5.906-2.909,6.563
					c0,0.656,1.766,2.484,1.766,2.484L194.193,199.591z"/>
				<path style="fill:#FFE78F;" d="M243.639,145.761c0,0-4.671,0.348-4.717,1.52c-0.047,1.172,2.25,9.422,2.672,9.891
					c0.422,0.469,4.013,1.223,5.057,0.236C247.312,156.781,243.639,145.761,243.639,145.761z"/>
			</g>
			<path style="fill:#FFFFFF;" d="M-9,217.049c-0.21,0-0.406-0.134-0.475-0.345c-0.086-0.263,0.057-0.545,0.32-0.63
				c0.617-0.202,61.917-20.238,77.271-26.042c3.192-1.206,16.649-19.564,26.476-32.968c6.619-9.029,12.335-16.826,14.204-18.545
				c4.803-4.415,30.601-20.179,35.849-21.905c8.332-2.74,16.235-0.46,17.473-0.067c2.016-0.607,23.209-6.773,47.058-5.242
				c4.892,0.314,28.72,17.675,30.966,21.702c0.135,0.241,0.048,0.546-0.193,0.68c-0.241,0.135-0.546,0.048-0.68-0.193
				c-2.29-4.105-26.247-20.939-30.157-21.191c-24.764-1.592-46.63,5.176-46.848,5.245c-0.101,0.032-0.209,0.031-0.311-0.003
				c-0.084-0.029-8.442-2.794-16.995,0.02c-5.018,1.65-30.885,17.462-35.485,21.691c-1.797,1.652-7.487,9.413-14.075,18.399
				c-13.292,18.132-23.715,32.098-26.929,33.313c-15.375,5.811-76.696,25.854-77.313,26.056C-8.897,217.041-8.949,217.049-9,217.049
				z"/>
		</g>
	</g>
</g>
<g id="TEXTS">
	<g>
		<path id="SVGID_x5F_00000087392069005414452250000007364925984622822315_x5F_" style="fill:none;" d="M209.826,259.082
			c0-18.196,14.804-33,33-33s33,14.804,33,33"/>
		<text>		<textPath  xlink:href="#SVGID_x5F_00000087392069005414452250000007364925984622822315_x5F_" startOffset="1.2235%">
<tspan  style="fill:#94411E; font-family:'MontserratRoman-SemiBold'; font-size:14px;">TAKE AWAY</tspan>		</textPath>
</text>
	</g>
</g>
</svg>
