<svg width="599" height="282" viewBox="0 0 599 282" fill="none" xmlns="http://www.w3.org/2000/svg">
<ellipse cx="14.8311" cy="253.708" rx="2.34915" ry="2.25346" transform="rotate(-90 14.8311 253.708)" fill="white" fill-opacity="0.5"/>
<ellipse cx="14.8311" cy="216.013" rx="2.34915" ry="2.25346" transform="rotate(-90 14.8311 216.013)" fill="white" fill-opacity="0.5"/>
<ellipse cx="14.8311" cy="178.317" rx="2.34915" ry="2.25346" transform="rotate(-90 14.8311 178.317)" fill="white" fill-opacity="0.5"/>
<ellipse cx="14.8311" cy="140.622" rx="2.34915" ry="2.25346" transform="rotate(-90 14.8311 140.622)" fill="white" fill-opacity="0.5"/>
<ellipse cx="14.8311" cy="102.925" rx="2.34915" ry="2.25346" transform="rotate(-90 14.8311 102.925)" fill="white" fill-opacity="0.5"/>
<ellipse cx="14.8311" cy="65.2299" rx="2.34915" ry="2.25346" transform="rotate(-90 14.8311 65.2299)" fill="white" fill-opacity="0.5"/>
<ellipse cx="14.8311" cy="27.5341" rx="2.34915" ry="2.25346" transform="rotate(-90 14.8311 27.5341)" fill="white" fill-opacity="0.5"/>
<ellipse cx="60.9644" cy="253.708" rx="2.34915" ry="2.25346" transform="rotate(-90 60.9644 253.708)" fill="white" fill-opacity="0.5"/>
<ellipse cx="60.9644" cy="216.013" rx="2.34915" ry="2.25346" transform="rotate(-90 60.9644 216.013)" fill="white" fill-opacity="0.5"/>
<ellipse cx="60.9644" cy="178.317" rx="2.34915" ry="2.25346" transform="rotate(-90 60.9644 178.317)" fill="white" fill-opacity="0.5"/>
<ellipse cx="60.9644" cy="140.622" rx="2.34915" ry="2.25346" transform="rotate(-90 60.9644 140.622)" fill="white" fill-opacity="0.5"/>
<ellipse cx="60.9644" cy="102.925" rx="2.34915" ry="2.25346" transform="rotate(-90 60.9644 102.925)" fill="white" fill-opacity="0.5"/>
<ellipse cx="60.9644" cy="65.2299" rx="2.34915" ry="2.25346" transform="rotate(-90 60.9644 65.2299)" fill="white" fill-opacity="0.5"/>
<ellipse cx="60.9644" cy="27.5341" rx="2.34915" ry="2.25346" transform="rotate(-90 60.9644 27.5341)" fill="white" fill-opacity="0.5"/>
<ellipse cx="107.098" cy="253.708" rx="2.34915" ry="2.25346" transform="rotate(-90 107.098 253.708)" fill="white" fill-opacity="0.5"/>
<ellipse cx="107.098" cy="216.013" rx="2.34915" ry="2.25346" transform="rotate(-90 107.098 216.013)" fill="white" fill-opacity="0.5"/>
<ellipse cx="107.098" cy="178.317" rx="2.34915" ry="2.25346" transform="rotate(-90 107.098 178.317)" fill="white" fill-opacity="0.5"/>
<ellipse cx="107.098" cy="140.622" rx="2.34915" ry="2.25346" transform="rotate(-90 107.098 140.622)" fill="white" fill-opacity="0.5"/>
<ellipse cx="107.098" cy="102.925" rx="2.34915" ry="2.25346" transform="rotate(-90 107.098 102.925)" fill="white" fill-opacity="0.5"/>
<ellipse cx="107.098" cy="65.2299" rx="2.34915" ry="2.25346" transform="rotate(-90 107.098 65.2299)" fill="white" fill-opacity="0.5"/>
<ellipse cx="107.098" cy="27.5341" rx="2.34915" ry="2.25346" transform="rotate(-90 107.098 27.5341)" fill="white" fill-opacity="0.5"/>
<ellipse cx="153.231" cy="253.708" rx="2.34915" ry="2.25346" transform="rotate(-90 153.231 253.708)" fill="white" fill-opacity="0.5"/>
<ellipse cx="153.231" cy="216.013" rx="2.34915" ry="2.25346" transform="rotate(-90 153.231 216.013)" fill="white" fill-opacity="0.5"/>
<ellipse cx="153.231" cy="178.317" rx="2.34915" ry="2.25346" transform="rotate(-90 153.231 178.317)" fill="white" fill-opacity="0.5"/>
<ellipse cx="153.231" cy="140.622" rx="2.34915" ry="2.25346" transform="rotate(-90 153.231 140.622)" fill="white" fill-opacity="0.5"/>
<ellipse cx="153.231" cy="102.925" rx="2.34915" ry="2.25346" transform="rotate(-90 153.231 102.925)" fill="white" fill-opacity="0.5"/>
<ellipse cx="153.231" cy="65.2299" rx="2.34915" ry="2.25346" transform="rotate(-90 153.231 65.2299)" fill="white" fill-opacity="0.5"/>
<ellipse cx="153.231" cy="27.5341" rx="2.34915" ry="2.25346" transform="rotate(-90 153.231 27.5341)" fill="white" fill-opacity="0.5"/>
<ellipse cx="199.365" cy="258.407" rx="2.34915" ry="2.25346" transform="rotate(-90 199.365 258.407)" fill="white" fill-opacity="0.5"/>
<ellipse cx="199.365" cy="220.711" rx="2.34915" ry="2.25346" transform="rotate(-90 199.365 220.711)" fill="white" fill-opacity="0.5"/>
<ellipse cx="199.365" cy="183.015" rx="2.34915" ry="2.25346" transform="rotate(-90 199.365 183.015)" fill="white" fill-opacity="0.5"/>
<ellipse cx="199.365" cy="145.32" rx="2.34915" ry="2.25346" transform="rotate(-90 199.365 145.32)" fill="white" fill-opacity="0.5"/>
<ellipse cx="199.365" cy="107.624" rx="2.34915" ry="2.25346" transform="rotate(-90 199.365 107.624)" fill="white" fill-opacity="0.5"/>
<ellipse cx="199.365" cy="69.9282" rx="2.34915" ry="2.25346" transform="rotate(-90 199.365 69.9282)" fill="white" fill-opacity="0.5"/>
<ellipse cx="199.365" cy="32.2324" rx="2.34915" ry="2.25346" transform="rotate(-90 199.365 32.2324)" fill="white" fill-opacity="0.5"/>
<ellipse cx="245.499" cy="253.708" rx="2.34915" ry="2.25346" transform="rotate(-90 245.499 253.708)" fill="white" fill-opacity="0.5"/>
<ellipse cx="245.499" cy="216.013" rx="2.34915" ry="2.25346" transform="rotate(-90 245.499 216.013)" fill="white" fill-opacity="0.5"/>
<ellipse cx="245.498" cy="178.317" rx="2.34915" ry="2.25346" transform="rotate(-90 245.498 178.317)" fill="white" fill-opacity="0.5"/>
<ellipse cx="245.499" cy="140.622" rx="2.34915" ry="2.25346" transform="rotate(-90 245.499 140.622)" fill="white" fill-opacity="0.5"/>
<ellipse cx="245.499" cy="102.925" rx="2.34915" ry="2.25346" transform="rotate(-90 245.499 102.925)" fill="white" fill-opacity="0.5"/>
<ellipse cx="245.499" cy="65.2299" rx="2.34915" ry="2.25346" transform="rotate(-90 245.499 65.2299)" fill="white" fill-opacity="0.5"/>
<ellipse cx="245.498" cy="27.5341" rx="2.34915" ry="2.25346" transform="rotate(-90 245.498 27.5341)" fill="white" fill-opacity="0.5"/>
<ellipse cx="291.632" cy="253.708" rx="2.34915" ry="2.25346" transform="rotate(-90 291.632 253.708)" fill="white" fill-opacity="0.5"/>
<ellipse cx="291.632" cy="216.013" rx="2.34915" ry="2.25346" transform="rotate(-90 291.632 216.013)" fill="white" fill-opacity="0.5"/>
<ellipse cx="291.632" cy="178.317" rx="2.34915" ry="2.25346" transform="rotate(-90 291.632 178.317)" fill="white" fill-opacity="0.5"/>
<ellipse cx="291.632" cy="140.622" rx="2.34915" ry="2.25346" transform="rotate(-90 291.632 140.622)" fill="white" fill-opacity="0.5"/>
<ellipse cx="291.632" cy="102.925" rx="2.34915" ry="2.25346" transform="rotate(-90 291.632 102.925)" fill="white" fill-opacity="0.5"/>
<ellipse cx="291.632" cy="65.2299" rx="2.34915" ry="2.25346" transform="rotate(-90 291.632 65.2299)" fill="white" fill-opacity="0.5"/>
<ellipse cx="291.632" cy="27.5341" rx="2.34915" ry="2.25346" transform="rotate(-90 291.632 27.5341)" fill="white" fill-opacity="0.5"/>
<ellipse cx="337.766" cy="253.708" rx="2.34915" ry="2.25346" transform="rotate(-90 337.766 253.708)" fill="white" fill-opacity="0.5"/>
<ellipse cx="337.766" cy="216.013" rx="2.34915" ry="2.25346" transform="rotate(-90 337.766 216.013)" fill="white" fill-opacity="0.5"/>
<ellipse cx="337.766" cy="178.317" rx="2.34915" ry="2.25346" transform="rotate(-90 337.766 178.317)" fill="white" fill-opacity="0.5"/>
<ellipse cx="337.766" cy="140.622" rx="2.34915" ry="2.25346" transform="rotate(-90 337.766 140.622)" fill="white" fill-opacity="0.5"/>
<ellipse cx="337.766" cy="102.925" rx="2.34915" ry="2.25346" transform="rotate(-90 337.766 102.925)" fill="white" fill-opacity="0.5"/>
<ellipse cx="337.766" cy="65.2299" rx="2.34915" ry="2.25346" transform="rotate(-90 337.766 65.2299)" fill="white" fill-opacity="0.5"/>
<ellipse cx="337.766" cy="27.5341" rx="2.34915" ry="2.25346" transform="rotate(-90 337.766 27.5341)" fill="white" fill-opacity="0.5"/>
<ellipse cx="383.899" cy="253.708" rx="2.34915" ry="2.25346" transform="rotate(-90 383.899 253.708)" fill="white" fill-opacity="0.5"/>
<ellipse cx="383.899" cy="216.013" rx="2.34915" ry="2.25346" transform="rotate(-90 383.899 216.013)" fill="white" fill-opacity="0.5"/>
<ellipse cx="383.899" cy="178.317" rx="2.34915" ry="2.25346" transform="rotate(-90 383.899 178.317)" fill="white" fill-opacity="0.5"/>
<ellipse cx="383.899" cy="140.622" rx="2.34915" ry="2.25346" transform="rotate(-90 383.899 140.622)" fill="white" fill-opacity="0.5"/>
<ellipse cx="383.899" cy="102.925" rx="2.34915" ry="2.25346" transform="rotate(-90 383.899 102.925)" fill="white" fill-opacity="0.5"/>
<ellipse cx="383.899" cy="65.2299" rx="2.34915" ry="2.25346" transform="rotate(-90 383.899 65.2299)" fill="white" fill-opacity="0.5"/>
<ellipse cx="383.899" cy="27.5341" rx="2.34915" ry="2.25346" transform="rotate(-90 383.899 27.5341)" fill="white" fill-opacity="0.5"/>
<ellipse cx="430.033" cy="253.708" rx="2.34915" ry="2.25346" transform="rotate(-90 430.033 253.708)" fill="white" fill-opacity="0.5"/>
<ellipse cx="430.033" cy="216.013" rx="2.34915" ry="2.25346" transform="rotate(-90 430.033 216.013)" fill="white" fill-opacity="0.5"/>
<ellipse cx="430.033" cy="178.317" rx="2.34915" ry="2.25346" transform="rotate(-90 430.033 178.317)" fill="white" fill-opacity="0.5"/>
<ellipse cx="430.033" cy="140.622" rx="2.34915" ry="2.25346" transform="rotate(-90 430.033 140.622)" fill="white" fill-opacity="0.5"/>
<ellipse cx="430.033" cy="102.925" rx="2.34915" ry="2.25346" transform="rotate(-90 430.033 102.925)" fill="white" fill-opacity="0.5"/>
<ellipse cx="430.033" cy="65.2299" rx="2.34915" ry="2.25346" transform="rotate(-90 430.033 65.2299)" fill="white" fill-opacity="0.5"/>
<ellipse cx="430.033" cy="27.5341" rx="2.34915" ry="2.25346" transform="rotate(-90 430.033 27.5341)" fill="white" fill-opacity="0.5"/>
<ellipse cx="476.167" cy="253.708" rx="2.34915" ry="2.25346" transform="rotate(-90 476.167 253.708)" fill="white" fill-opacity="0.5"/>
<ellipse cx="476.167" cy="216.013" rx="2.34915" ry="2.25346" transform="rotate(-90 476.167 216.013)" fill="white" fill-opacity="0.5"/>
<ellipse cx="476.167" cy="178.317" rx="2.34915" ry="2.25346" transform="rotate(-90 476.167 178.317)" fill="white" fill-opacity="0.5"/>
<ellipse cx="476.167" cy="140.622" rx="2.34915" ry="2.25346" transform="rotate(-90 476.167 140.622)" fill="white" fill-opacity="0.5"/>
<ellipse cx="476.167" cy="102.925" rx="2.34915" ry="2.25346" transform="rotate(-90 476.167 102.925)" fill="white" fill-opacity="0.5"/>
<ellipse cx="476.167" cy="65.2299" rx="2.34915" ry="2.25346" transform="rotate(-90 476.167 65.2299)" fill="white" fill-opacity="0.5"/>
<ellipse cx="476.167" cy="27.5341" rx="2.34915" ry="2.25346" transform="rotate(-90 476.167 27.5341)" fill="white" fill-opacity="0.5"/>
<ellipse cx="522.299" cy="253.708" rx="2.34915" ry="2.25346" transform="rotate(-90 522.299 253.708)" fill="white" fill-opacity="0.5"/>
<ellipse cx="522.299" cy="216.013" rx="2.34915" ry="2.25346" transform="rotate(-90 522.299 216.013)" fill="white" fill-opacity="0.5"/>
<ellipse cx="522.299" cy="178.317" rx="2.34915" ry="2.25346" transform="rotate(-90 522.299 178.317)" fill="white" fill-opacity="0.5"/>
<ellipse cx="522.299" cy="140.622" rx="2.34915" ry="2.25346" transform="rotate(-90 522.299 140.622)" fill="white" fill-opacity="0.5"/>
<ellipse cx="522.299" cy="102.925" rx="2.34915" ry="2.25346" transform="rotate(-90 522.299 102.925)" fill="white" fill-opacity="0.5"/>
<ellipse cx="522.299" cy="65.2299" rx="2.34915" ry="2.25346" transform="rotate(-90 522.299 65.2299)" fill="white" fill-opacity="0.5"/>
<ellipse cx="522.299" cy="27.5341" rx="2.34915" ry="2.25346" transform="rotate(-90 522.299 27.5341)" fill="white" fill-opacity="0.5"/>
<ellipse cx="568.433" cy="253.708" rx="2.34915" ry="2.25346" transform="rotate(-90 568.433 253.708)" fill="white" fill-opacity="0.5"/>
<ellipse cx="568.433" cy="216.013" rx="2.34915" ry="2.25346" transform="rotate(-90 568.433 216.013)" fill="white" fill-opacity="0.5"/>
<ellipse cx="568.433" cy="178.317" rx="2.34915" ry="2.25346" transform="rotate(-90 568.433 178.317)" fill="white" fill-opacity="0.5"/>
<ellipse cx="568.433" cy="140.622" rx="2.34915" ry="2.25346" transform="rotate(-90 568.433 140.622)" fill="white" fill-opacity="0.5"/>
<ellipse cx="568.433" cy="102.926" rx="2.34915" ry="2.25346" transform="rotate(-90 568.433 102.926)" fill="white" fill-opacity="0.5"/>
<ellipse cx="568.433" cy="65.2299" rx="2.34915" ry="2.25346" transform="rotate(-90 568.433 65.2299)" fill="white" fill-opacity="0.5"/>
<ellipse cx="568.433" cy="27.5346" rx="2.34915" ry="2.25346" transform="rotate(-90 568.433 27.5346)" fill="white" fill-opacity="0.5"/>
</svg>
