<svg width="70" height="70" viewBox="0 0 70 70" fill="none" xmlns="http://www.w3.org/2000/svg">
<path d="M62.7977 21.2352L27.7977 56.2352C27.5945 56.4385 27.3532 56.5999 27.0877 56.71C26.8221 56.8201 26.5375 56.8767 26.25 56.8767C25.9625 56.8767 25.6779 56.8201 25.4123 56.71C25.1468 56.5999 24.9055 56.4385 24.7023 56.2352L9.38984 40.9227C8.97938 40.5122 8.74878 39.9555 8.74878 39.375C8.74878 38.7945 8.97938 38.2378 9.38984 37.8273C9.80031 37.4169 10.357 37.1863 10.9375 37.1863C11.518 37.1863 12.0747 37.4169 12.4852 37.8273L26.25 51.5949L59.7023 18.1398C60.1128 17.7294 60.6695 17.4988 61.25 17.4988C61.8305 17.4988 62.3872 17.7294 62.7977 18.1398C63.2081 18.5503 63.4387 19.107 63.4387 19.6875C63.4387 20.268 63.2081 20.8247 62.7977 21.2352Z" fill="#00FF00"/>
</svg>
