<svg width="45" height="45" viewBox="0 0 45 45" fill="none" xmlns="http://www.w3.org/2000/svg">
<path d="M22.4998 16.6421C19.2743 16.6421 16.6419 19.2744 16.6419 22.5C16.6419 25.7256 19.2743 28.3579 22.4998 28.3579C25.7254 28.3579 28.3578 25.7256 28.3578 22.5C28.3578 19.2744 25.7254 16.6421 22.4998 16.6421ZM40.0692 22.5C40.0692 20.0742 40.0912 17.6704 39.9549 15.249C39.8187 12.4365 39.1771 9.94045 37.1204 7.88381C35.0594 5.82278 32.5677 5.18557 29.7552 5.04934C27.3294 4.91311 24.9256 4.93508 22.5042 4.93508C20.0785 4.93508 17.6746 4.91311 15.2533 5.04934C12.4408 5.18557 9.94467 5.82717 7.88803 7.88381C5.82699 9.94485 5.18978 12.4365 5.05355 15.249C4.91732 17.6748 4.9393 20.0786 4.9393 22.5C4.9393 24.9214 4.91732 27.3296 5.05355 29.751C5.18978 32.5635 5.83139 35.0596 7.88803 37.1162C9.94906 39.1773 12.4408 39.8145 15.2533 39.9507C17.679 40.0869 20.0828 40.065 22.5042 40.065C24.93 40.065 27.3338 40.0869 29.7552 39.9507C32.5677 39.8145 35.0638 39.1729 37.1204 37.1162C39.1815 35.0552 39.8187 32.5635 39.9549 29.751C40.0955 27.3296 40.0692 24.9258 40.0692 22.5ZM22.4998 31.5132C17.512 31.5132 13.4867 27.4878 13.4867 22.5C13.4867 17.5122 17.512 13.4868 22.4998 13.4868C27.4876 13.4868 31.513 17.5122 31.513 22.5C31.513 27.4878 27.4876 31.5132 22.4998 31.5132ZM31.8822 15.2227C30.7176 15.2227 29.7772 14.2823 29.7772 13.1177C29.7772 11.9532 30.7176 11.0127 31.8822 11.0127C33.0467 11.0127 33.9871 11.9532 33.9871 13.1177C33.9875 13.3942 33.9333 13.6681 33.8276 13.9237C33.722 14.1792 33.5669 14.4114 33.3714 14.6069C33.1759 14.8025 32.9437 14.9575 32.6881 15.0632C32.4326 15.1688 32.1587 15.223 31.8822 15.2227Z" fill="white" fill-opacity="0.82"/>
</svg>
