<svg width="30" height="30" viewBox="0 0 30 30" fill="none" xmlns="http://www.w3.org/2000/svg">
<path d="M10.7522 4.6875C7.42312 4.6875 4.6875 7.41937 4.6875 10.7522V19.2478C4.6875 22.5769 7.41937 25.3125 10.7522 25.3125H19.2478C22.5769 25.3125 25.3125 22.5806 25.3125 19.2478V10.7531C25.3125 7.42313 22.5806 4.6875 19.2478 4.6875H10.7522ZM10.7522 6.5625H19.2478C19.7982 6.56176 20.3434 6.66962 20.852 6.87991C21.3607 7.0902 21.8228 7.39878 22.212 7.78798C22.6012 8.17718 22.9098 8.63934 23.1201 9.14799C23.3304 9.65664 23.4382 10.2018 23.4375 10.7522V19.2478C23.4382 19.7982 23.3304 20.3434 23.1201 20.852C22.9098 21.3607 22.6012 21.8228 22.212 22.212C21.8228 22.6012 21.3607 22.9098 20.852 23.1201C20.3434 23.3304 19.7982 23.4382 19.2478 23.4375H10.7531C10.2026 23.4384 9.6574 23.3306 9.14864 23.1204C8.63988 22.9101 8.17761 22.6016 7.78831 22.2124C7.39902 21.8231 7.09035 21.3609 6.88 20.8522C6.66965 20.3435 6.56176 19.7983 6.5625 19.2478V10.7531C6.56164 10.2026 6.66941 9.6574 6.87964 9.14864C7.08988 8.63988 7.39844 8.17761 7.78765 7.78831C8.17686 7.39902 8.63906 7.09035 9.14777 6.88C9.65648 6.66965 10.2017 6.56176 10.7522 6.5625ZM20.5369 8.61375C20.4252 8.61325 20.3145 8.63488 20.2112 8.67739C20.108 8.7199 20.0141 8.78245 19.9352 8.86142C19.8562 8.94039 19.7937 9.03422 19.7511 9.1375C19.7086 9.24077 19.687 9.35144 19.6875 9.46312C19.6875 9.93562 20.0644 10.3125 20.5369 10.3125C20.6486 10.3131 20.7594 10.2916 20.8628 10.2491C20.9662 10.2067 21.0601 10.1441 21.1392 10.0652C21.2183 9.98618 21.2809 9.89231 21.3235 9.78897C21.366 9.68563 21.3877 9.57488 21.3872 9.46312C21.3877 9.35137 21.366 9.24062 21.3235 9.13728C21.2809 9.03394 21.2183 8.94007 21.1392 8.86109C21.0601 8.7821 20.9662 8.71958 20.8628 8.67712C20.7594 8.63467 20.6486 8.61313 20.5369 8.61375ZM15 9.375C11.9063 9.375 9.375 11.9063 9.375 15C9.375 18.0937 11.9063 20.625 15 20.625C18.0937 20.625 20.625 18.0937 20.625 15C20.625 11.9063 18.0937 9.375 15 9.375ZM15 11.25C17.0841 11.25 18.75 12.9159 18.75 15C18.75 17.0841 17.0841 18.75 15 18.75C12.9159 18.75 11.25 17.0841 11.25 15C11.25 12.9159 12.9159 11.25 15 11.25Z" fill="white"/>
</svg>
