<svg width="50" height="50" viewBox="0 0 50 50" fill="none" xmlns="http://www.w3.org/2000/svg">
<path d="M25 23.9583C23.6187 23.9583 22.2939 23.4096 21.3172 22.4328C20.3404 21.4561 19.7917 20.1313 19.7917 18.75C19.7917 17.3687 20.3404 16.0439 21.3172 15.0671C22.2939 14.0904 23.6187 13.5417 25 13.5417C26.3813 13.5417 27.7061 14.0904 28.6828 15.0671C29.6596 16.0439 30.2083 17.3687 30.2083 18.75C30.2083 19.434 30.0736 20.1112 29.8119 20.7431C29.5501 21.375 29.1665 21.9492 28.6828 22.4328C28.1992 22.9165 27.625 23.3001 26.9931 23.5619C26.3612 23.8236 25.684 23.9583 25 23.9583ZM25 4.16666C21.1323 4.16666 17.4229 5.70311 14.688 8.43802C11.9531 11.1729 10.4167 14.8823 10.4167 18.75C10.4167 29.6875 25 45.8333 25 45.8333C25 45.8333 39.5833 29.6875 39.5833 18.75C39.5833 14.8823 38.0469 11.1729 35.312 8.43802C32.5771 5.70311 28.8677 4.16666 25 4.16666Z" fill="#545454"/>
</svg>
