<svg width="46" height="45" viewBox="0 0 46 45" fill="none" xmlns="http://www.w3.org/2000/svg">
<g clip-path="url(#clip0_137_334)">
<path d="M45.5 22.5C45.5 10.0737 35.4263 0 23 0C10.5737 0 0.5 10.0737 0.5 22.5C0.5 33.7303 8.72797 43.0388 19.4844 44.7267V29.0039H13.7715V22.5H19.4844V17.543C19.4844 11.9039 22.8436 8.78906 27.983 8.78906C30.4447 8.78906 33.0195 9.22852 33.0195 9.22852V14.7656H30.1824C27.3873 14.7656 26.5156 16.5001 26.5156 18.2795V22.5H32.7559L31.7583 29.0039H26.5156V44.7267C37.272 43.0388 45.5 33.7305 45.5 22.5Z" fill="#1877F2"/>
<path d="M31.7583 29.0039L32.7559 22.5H26.5156V18.2795C26.5156 16.4999 27.3873 14.7656 30.1824 14.7656H33.0195V9.22852C33.0195 9.22852 30.4447 8.78906 27.9829 8.78906C22.8436 8.78906 19.4844 11.9039 19.4844 17.543V22.5H13.7715V29.0039H19.4844V44.7267C20.6474 44.9089 21.8228 45.0003 23 45C24.1772 45.0004 25.3526 44.909 26.5156 44.7267V29.0039H31.7583Z" fill="white"/>
</g>
<defs>
<clipPath id="clip0_137_334">
<rect width="45" height="45" fill="white" transform="translate(0.5)"/>
</clipPath>
</defs>
</svg>
