<svg width="98" height="98" viewBox="0 0 98 98" fill="none" xmlns="http://www.w3.org/2000/svg">
<g clip-path="url(#clip0_395_57)">
<path d="M30.9306 53.8978L43.5568 56.4919L49.9256 67.6985L51.4534 67.4566L59.2862 34.8422L30.6886 52.3701L30.9306 53.8978ZM31.8562 72.5963C28.5921 70.2248 25.9749 67.3763 24.0046 64.0509C22.0343 60.7255 20.7583 57.2303 20.1764 53.5652C19.5945 49.9002 19.728 46.1817 20.577 42.4098C21.4259 38.6378 23.0348 35.12 25.4036 31.8563C27.7725 28.5926 30.621 25.9753 33.9491 24.0046C37.2772 22.0339 40.7724 20.7579 44.4348 20.1764C48.0971 19.595 51.8156 19.7285 55.5902 20.577C59.3649 21.4255 62.8827 23.0344 66.1437 25.4037C69.4047 27.773 72.0219 30.6214 73.9954 33.9491C75.9688 37.2768 77.2448 40.7721 77.8236 44.4348C78.4023 48.0976 78.2696 51.8166 77.4253 55.592C76.5811 59.3673 74.9714 62.8846 72.5963 66.1438C70.2212 69.4029 67.3727 72.0201 64.0509 73.9954C60.729 75.9707 57.2338 77.2467 53.5652 77.8236C49.8966 78.4005 46.1775 78.2677 42.408 77.4254C38.6385 76.583 35.1213 74.9733 31.8562 72.5963Z" fill="#F8382F"/>
</g>
<defs>
<clipPath id="clip0_395_57">
<rect width="70" height="70" fill="white" transform="translate(41.2569 0.111938) rotate(36)"/>
</clipPath>
</defs>
</svg>
