<svg width="50" height="50" viewBox="0 0 50 50" fill="none" xmlns="http://www.w3.org/2000/svg">
<path d="M25 3.125C20.6735 3.125 16.4442 4.40795 12.8469 6.8116C9.24959 9.21526 6.44581 12.6317 4.79015 16.6288C3.13448 20.6259 2.70128 25.0243 3.54533 29.2676C4.38938 33.5109 6.47277 37.4087 9.53205 40.468C12.5913 43.5272 16.4891 45.6106 20.7324 46.4547C24.9757 47.2987 29.3741 46.8655 33.3712 45.2099C37.3683 43.5542 40.7848 40.7504 43.1884 37.1531C45.5921 33.5558 46.875 29.3265 46.875 25C46.875 19.1984 44.5703 13.6344 40.468 9.53204C36.3656 5.42968 30.8016 3.125 25 3.125ZM37.5 26.5625H18.5156L27.2344 35.2703L25 37.5L12.5 25L25 12.5L27.2344 14.6766L18.5156 23.4375H37.5V26.5625Z" fill="white"/>
<path d="M25 12.5L27.2344 14.6766L18.5156 23.4375H37.5V26.5625H18.5156L27.2344 35.2703L25 37.5L12.5 25L25 12.5Z" fill="#545454"/>
</svg>
