<svg width="16" height="16" viewBox="0 0 16 16" fill="none" xmlns="http://www.w3.org/2000/svg">
<path d="M6.00001 1.5C6.00001 1.36739 6.05268 1.24021 6.14645 1.14645C6.24022 1.05268 6.3674 1 6.50001 1C6.63261 1 6.75979 1.05268 6.85356 1.14645C6.94733 1.24021 7.00001 1.36739 7.00001 1.5V13.793C6.99998 13.8918 6.97068 13.9884 6.9158 14.0706C6.86092 14.1528 6.78293 14.2168 6.69166 14.2547C6.60039 14.2926 6.49995 14.3026 6.40301 14.2834C6.30607 14.2642 6.21699 14.2168 6.14701 14.147L1.49901 9.5C1.45244 9.45355 1.4155 9.39838 1.39029 9.33763C1.36509 9.27689 1.35211 9.21177 1.35211 9.146C1.35211 9.08023 1.36509 9.01511 1.39029 8.95437C1.4155 8.89362 1.45244 8.83845 1.49901 8.792H1.50101C1.59473 8.69857 1.72167 8.64611 1.85401 8.64611C1.98634 8.64611 2.11328 8.69857 2.20701 8.792L6.00001 12.588V1.5ZM9.00001 2.207C9.00022 2.10827 9.02967 2.01181 9.08462 1.92979C9.13958 1.84777 9.21759 1.78386 9.30881 1.7461C9.40004 1.70835 9.5004 1.69845 9.59725 1.71765C9.69409 1.73685 9.78308 1.7843 9.853 1.854L14.501 6.5C14.5476 6.54645 14.5845 6.60162 14.6097 6.66237C14.6349 6.72311 14.6479 6.78823 14.6479 6.854C14.6479 6.91977 14.6349 6.98489 14.6097 7.04563C14.5845 7.10638 14.5476 7.16155 14.501 7.208H14.499C14.4053 7.30143 14.2783 7.35389 14.146 7.35389C14.0137 7.35389 13.8867 7.30143 13.793 7.208L10 3.414V14.5C10 14.6326 9.94733 14.7598 9.85356 14.8536C9.75979 14.9473 9.63261 15 9.50001 15C9.3674 15 9.24022 14.9473 9.14645 14.8536C9.05268 14.7598 9.00001 14.6326 9.00001 14.5V2.207Z" fill="#545454"/>
</svg>
