<svg width="45" height="45" viewBox="0 0 45 45" fill="none" xmlns="http://www.w3.org/2000/svg">
<path d="M31.5374 38.94L7.03674 7.44C6.90761 7.27371 6.82773 7.07451 6.80619 6.86507C6.78466 6.65563 6.82233 6.44434 6.91492 6.25525C7.00752 6.06616 7.15131 5.90685 7.32996 5.79543C7.50861 5.68401 7.71495 5.62496 7.92549 5.625H12.5755C12.7467 5.62526 12.9155 5.66457 13.0692 5.73995C13.2229 5.81534 13.3574 5.9248 13.4624 6.06L37.963 37.56C38.0921 37.7263 38.172 37.9255 38.1935 38.1349C38.2151 38.3444 38.1774 38.5557 38.0848 38.7447C37.9922 38.9338 37.8484 39.0932 37.6698 39.2046C37.4911 39.316 37.2848 39.375 37.0742 39.375H32.4242C32.2531 39.3747 32.0842 39.3354 31.9305 39.26C31.7768 39.1847 31.6424 39.0752 31.5374 38.94Z" stroke="white" stroke-opacity="0.82" stroke-width="4.375"/>
<path d="M37.5 5.625L7.5 39.375" stroke="white" stroke-opacity="0.82" stroke-width="4.375" stroke-linecap="round"/>
</svg>
