<svg width="50" height="50" viewBox="0 0 50 50" fill="none" xmlns="http://www.w3.org/2000/svg">
<path fill-rule="evenodd" clip-rule="evenodd" d="M3.90625 25C3.90625 24.3784 4.15318 23.7823 4.59272 23.3427C5.03226 22.9032 5.6284 22.6562 6.25 22.6562H38.0937L29.5938 14.1562C29.1798 13.712 28.9544 13.1243 28.9651 12.5171C28.9758 11.9099 29.2218 11.3306 29.6512 10.9012C30.0806 10.4718 30.6599 10.2258 31.2671 10.2151C31.8743 10.2044 32.462 10.4297 32.9062 10.8437L45.4062 23.3437C45.8452 23.7832 46.0917 24.3789 46.0917 25C46.0917 25.6211 45.8452 26.2168 45.4062 26.6562L32.9062 39.1562C32.6917 39.3865 32.4329 39.5712 32.1454 39.6993C31.8579 39.8274 31.5476 39.8963 31.2329 39.9018C30.9182 39.9074 30.6056 39.8495 30.3138 39.7316C30.0219 39.6138 29.7568 39.4383 29.5343 39.2157C29.3117 38.9932 29.1362 38.7281 29.0184 38.4362C28.9005 38.1444 28.8426 37.8318 28.8482 37.5171C28.8537 37.2024 28.9226 36.8921 29.0507 36.6046C29.1788 36.3171 29.3635 36.0583 29.5938 35.8437L38.0937 27.3437H6.25C5.6284 27.3437 5.03226 27.0968 4.59272 26.6573C4.15318 26.2177 3.90625 25.6216 3.90625 25Z" fill="#433F4D"/>
</svg>
