<svg width="50" height="50" viewBox="0 0 50 50" fill="none" xmlns="http://www.w3.org/2000/svg">
<path d="M25 5.07812C21.0598 5.07812 17.2081 6.24652 13.932 8.43557C10.6559 10.6246 8.10244 13.736 6.5946 17.3762C5.08676 21.0165 4.69224 25.0221 5.46093 28.8866C6.22962 32.751 8.12699 36.3008 10.9131 39.0869C13.6992 41.873 17.249 43.7704 21.1134 44.5391C24.9779 45.3078 28.9835 44.9133 32.6238 43.4054C36.264 41.8976 39.3754 39.3441 41.5644 36.068C43.7535 32.7919 44.9219 28.9402 44.9219 25C44.9157 19.7183 42.8148 14.6547 39.0801 10.92C35.3453 7.18523 30.2817 5.08433 25 5.07812ZM25 42.5781C21.5234 42.5781 18.1248 41.5472 15.2341 39.6157C12.3434 37.6842 10.0904 34.9388 8.75994 31.7269C7.42949 28.5149 7.08139 24.9805 7.75964 21.5707C8.4379 18.1609 10.1121 15.0287 12.5704 12.5704C15.0287 10.112 18.1609 8.43789 21.5707 7.75963C24.9805 7.08138 28.5149 7.42948 31.7269 8.75993C34.9388 10.0904 37.6842 12.3434 39.6157 15.2341C41.5472 18.1248 42.5781 21.5234 42.5781 25C42.573 29.6604 40.7193 34.1285 37.4239 37.4239C34.1285 40.7193 29.6604 42.573 25 42.5781ZM18.3594 25C18.3594 26.3938 18.7979 27.7522 19.6129 28.8828C20.4278 30.0135 21.5778 30.8591 22.9001 31.2999C24.2223 31.7406 25.6497 31.7541 26.98 31.3386C28.3104 30.923 29.4763 30.0994 30.3125 28.9844C30.4992 28.7357 30.7771 28.5715 31.085 28.5277C31.3928 28.4839 31.7055 28.5642 31.9541 28.751C32.2028 28.9377 32.367 29.2156 32.4108 29.5234C32.4546 29.8313 32.3742 30.1439 32.1875 30.3926C31.0558 31.9006 29.4784 33.0144 27.6786 33.5763C25.8788 34.1381 23.9478 34.1194 22.1592 33.5229C20.3706 32.9265 18.815 31.7824 17.7126 30.2528C16.6103 28.7231 16.0171 26.8855 16.0171 25C16.0171 23.1145 16.6103 21.2769 17.7126 19.7472C18.815 18.2176 20.3706 17.0735 22.1592 16.4771C23.9478 15.8806 25.8788 15.8619 27.6786 16.4237C29.4784 16.9856 31.0558 18.0994 32.1875 19.6074C32.3742 19.8561 32.4546 20.1687 32.4108 20.4766C32.367 20.7844 32.2028 21.0623 31.9541 21.249C31.7055 21.4358 31.3928 21.5161 31.085 21.4723C30.7771 21.4285 30.4992 21.2643 30.3125 21.0156C29.4763 19.9006 28.3104 19.077 26.98 18.6614C25.6497 18.2459 24.2223 18.2594 22.9001 18.7001C21.5778 19.1409 20.4278 19.9865 19.6129 21.1172C18.7979 22.2478 18.3594 23.6062 18.3594 25Z" fill="#E1E0E3"/>
</svg>
