<svg width="50" height="50" viewBox="0 0 50 50" fill="none" xmlns="http://www.w3.org/2000/svg">
<path d="M25 43.75L21.9792 41.0417C18.4722 37.8819 15.5729 35.1562 13.2813 32.8646C10.9896 30.5729 9.16667 28.5153 7.81251 26.6917C6.45834 24.8694 5.51251 23.1944 4.97501 21.6667C4.43751 20.1389 4.16806 18.5764 4.16667 16.9792C4.16667 13.7153 5.26042 10.9896 7.44792 8.80208C9.63542 6.61458 12.3611 5.52083 15.625 5.52083C17.4306 5.52083 19.1493 5.90277 20.7813 6.66666C22.4132 7.43055 23.8195 8.50694 25 9.89583C26.1806 8.50694 27.5868 7.43055 29.2188 6.66666C30.8507 5.90277 32.5695 5.52083 34.375 5.52083C37.6389 5.52083 40.3646 6.61458 42.5521 8.80208C44.7396 10.9896 45.8333 13.7153 45.8333 16.9792C45.8333 18.5764 45.5646 20.1389 45.0271 21.6667C44.4896 23.1944 43.5431 24.8694 42.1875 26.6917C40.8333 28.5153 39.0104 30.5729 36.7188 32.8646C34.4271 35.1562 31.5278 37.8819 28.0208 41.0417L25 43.75Z" fill="#545454" fill-opacity="0.11"/>
</svg>
