<svg width="30" height="31" viewBox="0 0 30 31" fill="none" xmlns="http://www.w3.org/2000/svg">
<path d="M15 14.875C14.1712 14.875 13.3763 14.5458 12.7903 13.9597C12.2042 13.3737 11.875 12.5788 11.875 11.75C11.875 10.9212 12.2042 10.1263 12.7903 9.54029C13.3763 8.95424 14.1712 8.625 15 8.625C15.8288 8.625 16.6237 8.95424 17.2097 9.54029C17.7958 10.1263 18.125 10.9212 18.125 11.75C18.125 12.1604 18.0442 12.5667 17.8871 12.9459C17.7301 13.325 17.4999 13.6695 17.2097 13.9597C16.9195 14.2499 16.575 14.4801 16.1959 14.6371C15.8167 14.7942 15.4104 14.875 15 14.875ZM15 3C12.6794 3 10.4538 3.92187 8.81282 5.56282C7.17187 7.20376 6.25 9.42936 6.25 11.75C6.25 18.3125 15 28 15 28C15 28 23.75 18.3125 23.75 11.75C23.75 9.42936 22.8281 7.20376 21.1872 5.56282C19.5462 3.92187 17.3206 3 15 3Z" fill="#F8382F"/>
</svg>
