<svg width="26" height="30" viewBox="0 0 26 30" fill="none" xmlns="http://www.w3.org/2000/svg">
<g clip-path="url(#clip0_298_8)">
<path d="M21.3333 22.5C21.5988 22.5004 21.8542 22.6224 22.0473 22.8411C22.2403 23.0598 22.3565 23.3587 22.3721 23.6767C22.3876 23.9948 22.3014 24.308 22.131 24.5523C21.9606 24.7966 21.7188 24.9536 21.4552 24.9913L21.3333 25H4.66667C4.40117 24.9996 4.1458 24.8777 3.95274 24.6589C3.75968 24.4402 3.64351 24.1413 3.62795 23.8233C3.61239 23.5052 3.69862 23.192 3.86903 22.9477C4.03943 22.7034 4.28115 22.5464 4.54479 22.5088L4.66667 22.5H21.3333ZM21.3333 13.75C21.6096 13.75 21.8746 13.8817 22.0699 14.1161C22.2653 14.3505 22.375 14.6685 22.375 15C22.375 15.3315 22.2653 15.6495 22.0699 15.8839C21.8746 16.1183 21.6096 16.25 21.3333 16.25H4.66667C4.3904 16.25 4.12545 16.1183 3.9301 15.8839C3.73475 15.6495 3.625 15.3315 3.625 15C3.625 14.6685 3.73475 14.3505 3.9301 14.1161C4.12545 13.8817 4.3904 13.75 4.66667 13.75H21.3333ZM21.3333 5C21.6096 5 21.8746 5.1317 22.0699 5.36612C22.2653 5.60054 22.375 5.91848 22.375 6.25C22.375 6.58152 22.2653 6.89946 22.0699 7.13388C21.8746 7.3683 21.6096 7.5 21.3333 7.5H4.66667C4.3904 7.5 4.12545 7.3683 3.9301 7.13388C3.73475 6.89946 3.625 6.58152 3.625 6.25C3.625 5.91848 3.73475 5.60054 3.9301 5.36612C4.12545 5.1317 4.3904 5 4.66667 5H21.3333Z" fill="#433F4D"/>
</g>
<defs>
<clipPath id="clip0_298_8">
<rect width="25" height="30" fill="white" transform="translate(0.5)"/>
</clipPath>
</defs>
</svg>
