<svg width="74" height="74" viewBox="0 0 74 74" fill="none" xmlns="http://www.w3.org/2000/svg">
<path d="M36.8651 69.6887C35.9424 69.6337 35.0618 69.2835 34.3533 68.6897C33.6449 68.096 33.1461 67.2901 32.9307 66.3912L32.9172 66.3357L28.0697 44.7243L7.08338 37.6444L7.02963 37.6251C6.15839 37.3166 5.40935 36.7362 4.89294 35.9697C4.37653 35.2031 4.12008 34.291 4.16141 33.3676L4.1657 33.2857C4.20469 32.3802 4.52801 31.5099 5.08976 30.7986C5.6515 30.0873 6.4231 29.5711 7.29494 29.3233L56.2576 14.0258C56.272 14.0208 56.2869 14.017 56.302 14.0145C57.0892 13.7887 57.9239 13.7885 58.7112 14.0137C59.4985 14.239 60.2068 14.6807 60.7555 15.2885C61.3042 15.8964 61.6713 16.6461 61.8149 17.4523C61.9586 18.2585 61.8732 19.0888 61.5683 19.8488L61.5524 19.8918L41.2148 66.9951C40.8719 67.8493 40.2648 68.5715 39.4822 69.0561C38.6996 69.5408 37.7826 69.7624 36.8651 69.6887Z" fill="#F8382F"/>
</svg>
