<svg width="50" height="50" viewBox="0 0 50 50" fill="none" xmlns="http://www.w3.org/2000/svg">
<path d="M26.5625 45.3125C26.3538 45.3126 26.1472 45.2708 25.9549 45.1898C25.7626 45.1087 25.5885 44.9899 25.4429 44.8405C25.2972 44.691 25.183 44.5139 25.1069 44.3195C25.0309 44.1252 24.9945 43.9176 25 43.709V25.794C25 25.5868 24.9177 25.388 24.7712 25.2415C24.6247 25.095 24.4259 25.0127 24.2187 25.0127H6.29003C5.9614 25.0166 5.63961 24.9187 5.36878 24.7325C5.09796 24.5463 4.89137 24.2809 4.77734 23.9727C4.64748 23.6051 4.65973 23.2022 4.81169 22.8432C4.96365 22.4842 5.24433 22.1949 5.59863 22.0322L43.0986 4.83009C43.3883 4.69734 43.7117 4.65636 44.0254 4.71264C44.3391 4.76891 44.6281 4.91976 44.8536 5.14495C45.0791 5.37013 45.2303 5.65888 45.287 5.97248C45.3438 6.28608 45.3032 6.60952 45.1709 6.89943L27.9834 44.3994C27.8589 44.6718 27.6589 44.9026 27.4069 45.0645C27.155 45.2264 26.8619 45.3125 26.5625 45.3125Z" fill="white" fill-opacity="0.82"/>
</svg>
