<svg width="112" height="17" viewBox="0 0 112 17" fill="none" xmlns="http://www.w3.org/2000/svg">
<path d="M10 0L12.2451 5.84678H19.5106L13.6327 9.46029L15.8779 15.3071L10 11.6936L4.12215 15.3071L6.36729 9.46029L0.489435 5.84678H7.75486L10 0Z" fill="#F8382F"/>
<path d="M33 0L35.2451 5.84678H42.5106L36.6327 9.46029L38.8779 15.3071L33 11.6936L27.1221 15.3071L29.3673 9.46029L23.4894 5.84678H30.7549L33 0Z" fill="#F8382F"/>
<path d="M56 0L58.2451 5.84678H65.5106L59.6327 9.46029L61.8779 15.3071L56 11.6936L50.1221 15.3071L52.3673 9.46029L46.4894 5.84678H53.7549L56 0Z" fill="#F8382F"/>
<path d="M79 0L81.2451 5.84678H88.5106L82.6327 9.46029L84.8779 15.3071L79 11.6936L73.1221 15.3071L75.3673 9.46029L69.4894 5.84678H76.7549L79 0Z" fill="#F8382F"/>
<path d="M102 0L104.245 5.84678H111.511L105.633 9.46029L107.878 15.3071L102 11.6936L96.1221 15.3071L98.3673 9.46029L92.4894 5.84678H99.7549L102 0Z" fill="#F8382F"/>
</svg>
